<?xml version="1.0" encoding="utf-8"?>
<!-- Generator: Adobe Illustrator 23.0.2, SVG Export Plug-In . SVG Version: 6.00 Build 0)  -->
<svg version="1.1" id="Capa_1" xmlns="http://www.w3.org/2000/svg" xmlns:xlink="http://www.w3.org/1999/xlink" x="0px" y="0px"
	 viewBox="0 0 2834.65 1984.25" style="enable-background:new 0 0 2834.65 1984.25;" xml:space="preserve">
<g>
	<g>
		<path d="M2067.47,1396.32c0,2.86,0.05,5.25,0.15,7.13c0.08,1.91,0.39,3.43,0.93,4.58c0.54,1.19,1.44,2.14,2.7,2.86
			c1.26,0.72,3.07,1.34,5.41,1.88c1.24,0.36,2.5,0.54,3.76,0.54c1.44,0,2.65,0.13,3.66,0.41c0.98,0.26,1.8,0.67,2.42,1.21
			c0.62,0.54,0.95,1.52,0.95,2.96c0,2.52-1.98,3.78-5.95,3.78c-1.98,0-4.89-0.23-8.75-0.7c-3.89-0.44-8.7-0.67-14.45-0.67
			c-5.77,0-10.63,0.23-14.57,0.67c-3.97,0.46-6.93,0.7-8.91,0.7c-3.94,0-5.92-1.44-5.92-4.32c0-1.26,0.31-2.16,0.93-2.71
			c0.64-0.54,1.49-0.9,2.57-1.08c1.08-0.16,2.24-0.26,3.5-0.26c1.26,0,2.6-0.18,4.04-0.54c2.16-0.54,3.86-1.13,5.13-1.75
			c1.26-0.64,2.21-1.57,2.86-2.83c0.62-1.26,0.98-2.78,1.05-4.58c0.1-1.8,0.16-4.22,0.16-7.29v-123.6c0-4.33-0.33-7.24-0.95-8.78
			c-0.62-1.52-2.29-2.73-4.99-3.63c-1.8-0.54-3.5-0.83-5.12-0.83c-1.44,0-2.76-0.08-3.92-0.26c-1.18-0.18-2.09-0.49-2.7-0.95
			c-0.62-0.44-0.93-1.39-0.93-2.83c0-2.52,1.34-3.78,4.04-3.78c1.98,0,4.84,0.36,8.63,1.08c3.78,0.72,8.65,1.08,14.57,1.08
			c6.49,0,11.69-0.36,15.66-1.08c3.97-0.72,6.82-1.08,8.63-1.08c2.71,0,4.04,1.26,4.04,3.78c0,1.26-0.26,2.11-0.8,2.58
			c-0.54,0.44-1.37,0.75-2.42,0.93c-1.08,0.18-2.34,0.33-3.79,0.41c-1.44,0.1-2.96,0.31-4.58,0.67c-3.43,0.72-5.46,1.93-6.08,3.65
			c-0.62,1.7-0.95,4.71-0.95,9.04V1396.32z"/>
		<path d="M2126.26,1317.24c0,1.98,0.36,2.96,1.08,2.96c0.72,0,1.83-1.29,3.35-3.92c1.55-2.6,3.99-5.43,7.42-8.5
			c3.58-3.25,7.21-5.67,10.89-7.29c3.68-1.62,7.65-2.42,11.97-2.42c10.02,0,18.1,3.68,24.21,11.05c6.08,7.36,9.14,17.33,9.14,29.87
			v66c0,3.76,0.72,6.31,2.17,7.67c1.42,1.34,3.04,2.24,4.84,2.68c1.8,0.46,3.42,0.8,4.86,1.08c1.44,0.26,2.17,1.11,2.17,2.55
			c0,1.26-0.31,2.01-0.95,2.29c-0.64,0.28-1.67,0.41-3.09,0.41c-1.26,0-3.35-0.18-6.2-0.54c-2.88-0.36-6.62-0.54-11.23-0.54
			c-3.71,0-6.95,0.18-9.71,0.54c-2.78,0.36-5.17,0.54-7.13,0.54c-1.62,0-2.81-0.1-3.53-0.28c-0.72-0.18-1.08-0.98-1.08-2.42
			c0-1.42,0.72-2.29,2.17-2.55c1.44-0.28,3.06-0.67,4.86-1.21c1.8-0.54,3.4-1.49,4.84-2.83c1.44-1.34,2.16-3.81,2.16-7.39v-54.13
			c0-14.01-1.8-24.49-5.41-31.49c-3.63-7-10.15-10.51-19.54-10.51c-9.76,0-16.82,3.91-21.14,11.72c-4.35,7.8-6.52,19.52-6.52,35.13
			V1405c0,3.76,0.72,6.31,2.16,7.67c1.42,1.34,3.04,2.24,4.84,2.68c1.8,0.46,3.42,0.8,4.87,1.08c1.44,0.26,2.16,1.13,2.16,2.55
			c0,1.26-0.31,2.01-0.95,2.29c-0.64,0.28-1.67,0.41-3.11,0.41c-1.24,0-3.3-0.18-6.18-0.54c-2.88-0.36-6.62-0.54-11.2-0.54
			c-3.37,0-6.46,0.18-9.35,0.54c-2.86,0.36-5.56,0.54-8.06,0.54c-1.44,0-2.47-0.13-3.11-0.41c-0.64-0.28-0.93-1.03-0.93-2.29
			c0-1.44,0.7-2.29,2.14-2.55c1.44-0.28,3.06-0.67,4.86-1.21c1.8-0.54,3.43-1.49,4.84-2.83c1.44-1.34,2.17-3.81,2.17-7.39v-78.1
			c0-2.7-0.57-4.46-1.75-5.25c-1.16-0.8-2.42-1.31-3.76-1.5c-1.37-0.15-2.58-0.36-3.66-0.54c-1.08-0.15-1.62-0.8-1.62-1.88
			c0-1.6,0.95-2.73,2.83-3.35c1.91-0.64,3.84-1.67,5.79-3.12c4.69-3.22,8.09-6.23,10.25-9.01c2.14-2.78,3.66-4.17,4.56-4.17
			c0.9,0,1.39,0.59,1.49,1.75c0.08,1.18,0.13,2.76,0.13,4.71V1317.24z"/>
		<path d="M2248.01,1298.34c0,1.8,0.23,3.04,0.67,3.66c0.46,0.62,1.49,0.93,3.11,0.93h19.96c1.62,0,2.63,0.23,2.98,0.7
			c0.36,0.44,0.54,1.39,0.54,2.83v1.08c0,1.62-0.23,2.78-0.67,3.5c-0.46,0.72-1.42,1.08-2.86,1.08h-20.24
			c-1.6,0-2.65,0.31-3.09,0.95c-0.46,0.62-0.67,1.83-0.67,3.63v78.8c0,13.67,4.33,20.52,12.95,20.52c2.34,0,4.48-0.54,6.46-1.62
			c1.98-1.08,3.73-2.21,5.28-3.37c1.52-1.18,2.83-2.29,3.92-3.37c1.05-1.08,1.88-1.62,2.42-1.62c0.72,0,1.08,0.72,1.08,2.16
			c0,0.9-0.67,2.37-2.04,4.45c-1.34,2.06-3.22,4.12-5.66,6.21c-2.42,2.06-5.2,3.91-8.37,5.51c-3.14,1.62-6.44,2.45-9.84,2.45
			c-7.03,0-12.46-2.81-16.33-8.37c-3.89-5.59-5.82-13.75-5.82-24.57v-12.67l0.83-64.51c0-1.8-0.23-3.01-0.67-3.63
			c-0.46-0.64-1.5-0.95-3.12-0.95h-4.04c-2.71,0-4.04-0.82-4.04-2.42c0-1.44,1.39-3.19,4.17-5.28c2.78-2.06,6.18-5.43,10.12-10.12
			c3.96-4.66,6.62-8.73,7.96-12.13c1.37-3.43,2.65-5.15,3.92-5.15c0.72,0,1.08,1.08,1.08,3.24v4.33V1298.34z"/>
		<path d="M2318.44,1404.9c0,3.81,0.77,6.36,2.32,7.73c1.52,1.34,3.22,2.24,5.12,2.7c1.88,0.44,3.58,0.8,5.12,1.08
			c1.52,0.26,2.29,1.13,2.29,2.58s-0.31,2.24-0.95,2.42c-0.62,0.18-1.67,0.28-3.09,0.28c-1.08,0-3.22-0.18-6.36-0.54
			c-3.14-0.36-7.26-0.54-12.39-0.54c-4.07,0-7.67,0.18-10.82,0.54c-3.14,0.36-5.69,0.54-7.7,0.54c-1.44,0-2.55-0.13-3.35-0.41
			c-0.83-0.28-1.24-1.03-1.24-2.29c0-1.44,0.88-2.29,2.58-2.55c1.7-0.28,3.55-0.62,5.53-1.08c1.98-0.44,3.81-1.39,5.54-2.83
			c1.7-1.44,2.55-3.94,2.55-7.52v-74.06c0-6.64-2.81-9.96-8.37-9.96c-1.44,0-2.6-0.13-3.5-0.41c-0.9-0.26-1.34-1.03-1.34-2.29
			c0-1.8,1.03-3.04,3.09-3.76c2.06-0.72,4.27-2.06,6.62-4.04c4.99-2.88,8.7-5.48,11.2-7.8c2.47-2.34,4.22-3.5,5.3-3.5
			c0.88,0,1.39,0.36,1.57,1.08c0.18,0.75,0.26,1.98,0.26,3.76V1404.9z M2317.1,1255.7c1.98,2.7,2.96,5.87,2.96,9.45
			c0,3.43-0.93,6.44-2.83,9.04c-1.88,2.63-4.17,3.91-6.88,3.91c-2.52,0-4.71-1.24-6.62-3.76c-1.88-2.52-2.83-5.59-2.83-9.19
			c0-3.58,0.95-6.75,2.83-9.45c1.91-2.68,4.1-4.04,6.62-4.04S2315.12,1253.02,2317.1,1255.7z"/>
		<path d="M2371.33,1317.24c0,1.98,0.36,2.96,1.06,2.96c0.72,0,1.72-1.29,2.96-3.92c1.26-2.6,3.6-5.43,7-8.5
			c3.6-3.25,7.11-5.67,10.51-7.29c3.43-1.62,7.19-2.42,11.33-2.42c7.36,0,13.37,2.01,18.03,6.08c4.66,4.04,8.45,10.3,11.33,18.75
			h1.08c5.2-8.45,10.4-14.7,15.61-18.75c5.2-4.07,10.95-6.08,17.25-6.08c9.32,0,16.87,3.68,22.61,11.05
			c5.74,7.36,8.63,17.33,8.63,29.87c0,0.9,0.05,2.76,0.13,5.53c0.1,2.78,0.13,6.52,0.13,11.18V1405c0,3.76,0.7,6.31,2.04,7.67
			c1.37,1.34,2.83,2.24,4.45,2.68c1.62,0.46,3.09,0.8,4.46,1.08c1.34,0.26,2.03,1.11,2.03,2.55c0,1.26-0.28,2.01-0.82,2.29
			c-0.54,0.28-1.52,0.41-2.96,0.41c-1.08,0-2.96-0.18-5.67-0.54c-2.7-0.36-6.26-0.54-10.66-0.54c-3.89,0-7.24,0.18-10.01,0.54
			c-2.78,0.36-5.05,0.54-6.85,0.54c-1.44,0-2.47-0.13-3.09-0.41c-0.64-0.28-0.95-1.03-0.95-2.29c0-1.42,0.67-2.29,2.01-2.55
			c1.37-0.28,2.88-0.67,4.59-1.21c1.72-0.54,3.24-1.49,4.61-2.83c1.34-1.34,2.01-3.81,2.01-7.39v-54.13
			c0-14.01-1.67-24.49-5.02-31.49c-3.35-7-9.35-10.51-18.05-10.51c-7.05,0-12.98,3.14-17.77,9.42c-4.79,6.28-7.29,15.97-7.47,29.07
			l-0.54,57.63c0,3.58,0.7,6.05,2.04,7.39c1.34,1.34,2.86,2.29,4.58,2.83c1.7,0.54,3.24,0.93,4.58,1.21
			c1.37,0.26,2.04,1.13,2.04,2.55c0,1.26-0.28,2.01-0.8,2.29c-0.57,0.28-1.55,0.41-2.99,0.41c-1.26,0-3.24-0.18-5.92-0.54
			c-2.7-0.36-6.18-0.54-10.4-0.54c-4.79,0-8.6,0.18-11.49,0.54c-2.88,0.36-4.74,0.54-5.66,0.54c-1.42,0-2.42-0.13-2.96-0.41
			c-0.54-0.28-0.8-1.03-0.8-2.29c0-1.42,0.67-2.29,2.01-2.55c1.36-0.28,2.83-0.67,4.48-1.21c1.6-0.54,3.09-1.49,4.43-2.83
			c1.36-1.34,2.03-3.81,2.03-7.39v-54.13c0-14.01-1.72-24.49-5.18-31.49c-3.43-7-9.4-10.51-17.9-10.51
			c-7.06,0-13.08,3.27-18.05,9.84c-4.97,6.54-7.47,16.1-7.47,28.66V1405c0,3.76,0.72,6.31,2.17,7.67c1.44,1.34,3.06,2.24,4.86,2.68
			c1.8,0.46,3.43,0.8,4.87,1.08c1.42,0.26,2.16,1.13,2.16,2.55c0,1.26-0.33,2.01-0.95,2.29c-0.64,0.28-1.67,0.41-3.12,0.41
			c-0.72,0-2.52-0.18-5.38-0.54c-2.88-0.36-6.87-0.54-12.02-0.54c-3.71,0-7.03,0.18-9.99,0.54c-2.96,0.36-5.43,0.54-7.42,0.54
			c-1.44,0-2.47-0.13-3.09-0.41c-0.64-0.28-0.95-1.03-0.95-2.29c0-1.44,0.72-2.29,2.16-2.55c1.44-0.28,3.06-0.67,4.87-1.21
			c1.78-0.54,3.4-1.49,4.84-2.83c1.44-1.34,2.16-3.81,2.16-7.39v-76.76c0-3.22-0.57-5.38-1.75-6.46c-1.16-1.08-2.42-1.7-3.78-1.88
			c-1.34-0.18-2.55-0.28-3.63-0.28c-1.08,0-1.62-0.62-1.62-1.88c0-1.6,0.95-2.73,2.83-3.35c1.88-0.64,3.81-1.67,5.79-3.12
			c4.69-3.22,8.08-6.23,10.25-9.01c2.16-2.78,3.68-4.17,4.58-4.17c0.88,0,1.39,0.59,1.47,1.75c0.1,1.18,0.15,2.76,0.15,4.71V1317.24
			z"/>
		<path d="M2596.68,1396.32c0,11.15,2.42,16.71,7.29,16.71c1.98,0,3.84-0.98,5.54-2.96c1.7-1.98,3.11-2.96,4.17-2.96
			c1.29,0,1.9,0.62,1.9,1.88c0,1.44-0.77,3.11-2.29,4.99c-1.55,1.88-3.37,3.73-5.54,5.54c-2.16,1.8-4.45,3.27-6.87,4.45
			c-2.45,1.16-4.56,1.75-6.33,1.75c-3.61,0-6.36-1.39-8.24-4.17c-1.88-2.81-3.63-7.34-5.28-13.65h-1.06
			c-6.85,5.77-12.93,10.35-18.23,13.78c-5.3,3.4-10.84,5.13-16.61,5.13c-6.46,0-11.48-1.93-15.09-5.82
			c-3.6-3.86-5.41-9.04-5.41-15.5c0-5.05,1.18-9.76,3.5-14.17c2.34-4.4,5.9-8.73,10.66-12.95c4.76-4.22,10.66-8.6,17.69-13.11
			c7-4.48,15.12-9.35,24.28-14.58v-23.74c0-8.26-0.85-14.21-2.57-17.79c-1.7-3.6-5.36-5.41-10.92-5.41c-4.69,0-9.09,1.62-13.24,4.87
			c-4.12,3.22-7,7.11-8.63,11.59c-1.98,5.59-3.97,10.3-5.92,14.19c-1.98,3.86-5.51,5.79-10.53,5.79c-1.26,0-2.34-0.41-3.25-1.21
			c-0.9-0.83-1.34-1.93-1.34-3.37c0-3.25,1.16-7.03,3.5-11.36c2.34-4.3,5.67-8.45,9.99-12.41c4.3-3.94,9.42-7.29,15.37-9.96
			c5.95-2.71,12.41-4.04,19.44-4.04c5.56,0,9.99,0.72,13.21,2.14c3.25,1.44,5.67,3.53,7.29,6.21c1.62,2.7,2.6,5.95,2.96,9.73
			c0.36,3.76,0.54,8.01,0.54,12.67V1396.32z M2579.42,1358.8c-0.54,0-1.44,0.36-2.7,1.08l-8.11,4.58
			c-18.33,10.61-27.53,21.86-27.53,33.73c0,5.05,1.26,9.04,3.79,12c2.52,2.99,6.03,4.45,10.53,4.45c2.7,0,5.54-0.62,8.5-1.88
			c2.96-1.26,5.74-3.11,8.37-5.53c2.6-2.42,4.71-5.38,6.34-8.91c1.62-3.5,2.42-7.49,2.42-12v-24.82
			C2581.02,1359.7,2580.5,1358.8,2579.42,1358.8z"/>
		<path d="M2650.39,1298.34c0,1.8,0.21,3.04,0.67,3.66c0.44,0.62,1.5,0.93,3.09,0.93h19.98c1.62,0,2.6,0.23,2.99,0.7
			c0.33,0.44,0.51,1.39,0.51,2.83v1.08c0,1.62-0.23,2.78-0.67,3.5c-0.46,0.72-1.39,1.08-2.83,1.08h-20.24
			c-1.62,0-2.65,0.31-3.09,0.95c-0.46,0.62-0.7,1.83-0.7,3.63v78.8c0,13.67,4.33,20.52,12.95,20.52c2.34,0,4.51-0.54,6.49-1.62
			c1.96-1.08,3.73-2.21,5.25-3.37c1.55-1.18,2.83-2.29,3.92-3.37c1.08-1.08,1.9-1.62,2.42-1.62c0.72,0,1.08,0.72,1.08,2.16
			c0,0.9-0.67,2.37-2.01,4.45c-1.37,2.06-3.25,4.12-5.67,6.21c-2.44,2.06-5.23,3.91-8.37,5.51c-3.14,1.62-6.44,2.45-9.86,2.45
			c-7,0-12.46-2.81-16.32-8.37c-3.86-5.59-5.79-13.75-5.79-24.57v-12.67l0.8-64.51c0-1.8-0.21-3.01-0.67-3.63
			c-0.46-0.64-1.5-0.95-3.09-0.95h-4.07c-2.68,0-4.04-0.82-4.04-2.42c0-1.44,1.39-3.19,4.2-5.28c2.78-2.06,6.15-5.43,10.12-10.12
			c3.94-4.66,6.59-8.73,7.96-12.13c1.34-3.43,2.65-5.15,3.91-5.15c0.72,0,1.08,1.08,1.08,3.24v4.33V1298.34z"/>
		<path d="M2714.33,1345.85c-2.34,0-3.76,0.77-4.3,2.29c-0.54,1.52-0.83,4.53-0.83,9.04c0,8.99,1.03,17,3.12,24.03
			c2.06,7,4.94,12.95,8.63,17.79c3.68,4.87,8.11,8.6,13.24,11.2c5.12,2.63,10.74,3.91,16.87,3.91c5.56,0,10.28-0.9,14.16-2.68
			c3.86-1.8,7.06-3.78,9.58-5.95c2.52-2.16,4.51-4.15,5.92-5.95c1.47-1.78,2.45-2.68,2.99-2.68c1.26,0,1.88,0.72,1.88,2.14
			c0,1.98-0.98,4.56-2.96,7.7c-1.98,3.14-4.81,6.2-8.5,9.17c-3.71,2.99-8.19,5.54-13.49,7.7s-11.2,3.25-17.69,3.25
			c-7.36,0-14.16-1.55-20.37-4.59c-6.2-3.06-11.56-7.39-16.04-12.95c-4.51-5.59-7.98-12.34-10.4-20.24
			c-2.42-7.93-3.63-16.74-3.63-26.45c0-9.91,1.42-18.85,4.3-26.86c2.88-8.01,6.75-14.81,11.61-20.37c4.87-5.59,10.53-9.86,17-12.82
			c6.46-2.96,13.31-4.46,20.52-4.46c6.28,0,11.95,1.16,16.99,3.5c5.02,2.34,9.3,5.46,12.82,9.32c3.5,3.86,6.18,8.37,8.09,13.5
			c1.88,5.12,2.83,10.38,2.83,15.78c0,1.98-0.59,3.43-1.75,4.3c-1.18,0.93-3.3,1.36-6.36,1.36H2714.33z M2761.3,1337.33
			c5.2-1.37,7.83-4.66,7.83-9.91c0-2.91-0.65-5.79-1.88-8.7c-1.29-2.91-3.04-5.53-5.28-7.88c-2.24-2.37-4.89-4.27-7.96-5.72
			c-3.06-1.44-6.31-2.19-9.71-2.19c-4.33,0-8.47,1.11-12.44,3.27c-3.94,2.19-7.42,4.89-10.38,8.16c-2.96,3.27-5.36,6.87-7.16,10.87
			c-1.77,3.99-2.7,7.91-2.7,11.69c0,0.54,0.28,1.11,0.82,1.65c0.54,0.54,1.26,0.8,2.16,0.8h22.12
			C2747.89,1339.36,2756.07,1338.69,2761.3,1337.33z"/>
	</g>
	<g>
		<path d="M1673.1,1046.6l1.34,1.05l-1.8,3.09l-1.75-0.75c-22.25-11.92-40.84-14.73-58.53-8.83c-0.64,0.21-1.31,0.21-1.9,0
			c-1.13,0.56-2.24,1.16-3.38,1.8c8.76,3.19,15.89,8.99,20.29,16.58l0.88,1.5l-1.52,1.31c-0.93,0.64-2.21,0.44-2.91-0.46
			c-5.87-7.67-13.96-12.72-23.41-14.63c-3.97,2.86-7.83,6.2-11.51,9.96c-1.55,1.55-3.06,3.14-4.59,4.71
			c-6.05,6.36-12.33,12.93-19.75,18.08c-8.5,5.9-19.18,9.17-33.63,10.27c-24.82,1.88-48.87-4.56-66.28-17.69
			c0.85,1.98,1.7,4.05,2.55,6.15c7.98,19.44,16.25,39.58,36.8,43.78c10.35,2.14,20.42-4.4,29.31-10.15c1.55-1,3.04-1.98,4.51-2.88
			c11.89-7.36,22.38-10.14,33.89-8.99c6.67,0.67,13.06,2.58,19.21,4.43c3.94,1.18,8.01,2.39,12.05,3.24
			c11.28,2.42,19.85-2.37,26.94-14.99c2.01-3.58,3.35-7.67,4.74-11.97c2.34-7.21,4.74-14.68,10.66-19.83
			c7.34-6.39,15.04-5.9,23.18-5.41c1.83,0.13,3.68,0.23,5.56,0.28c5.51,0.16,8.45-1.67,9.48-5.77c1.6-6.54-6.26-12.13-12.1-13.85
			l-2.11-0.21c-5.98-0.72-11.61-1.39-17.36-1.77c-0.41,0.13-0.83,0.23-1.24,0.36C1658.73,1037.48,1666.35,1041.4,1673.1,1046.6z"/>
		<g>
			<path d="M257.78,1156.01c-5.36,2.81-12.72,5.79-22.12,8.96c-9.4,3.17-19.57,4.76-30.49,4.76c-5.33,0-10.61-0.9-15.81-2.68
				c-5.23-1.78-9.79-4.51-13.7-8.19c-3.96-3.68-7.13-8.14-9.55-13.34c-2.39-5.2-3.6-11.23-3.6-18.1V893.1
				c0-1.76,0.88-2.67,2.68-2.67h68.19c4.33,0,8.24-1.84,11.82-5.52c3.55-3.68,5.33-7.17,5.33-10.48c0-2.52-0.7-4.2-2.11-4.94
				c-1.39-0.77-5.12-1.14-11.23-1.14h-71.64c-2.04,0-3.04-0.89-3.04-2.67V738.41c0-4.07-1.21-6.62-3.6-7.62
				c-2.42-1.02-5.05-0.77-7.83,0.75c-6.1,3.82-12.77,7.44-20.01,10.87c-7.24,3.43-14.62,6.61-22.09,9.53
				c-7.49,2.92-14.86,5.46-22.09,7.62c-7.24,2.16-14.04,3.87-20.4,5.14c-4.56,0.76-6.85,3.94-6.85,9.53v91.07
				c0,2.04-0.9,3.05-2.68,3.05h-8.4c-4.3,0-7.93,1.84-10.84,5.52c-2.93,3.68-4.38,7.19-4.38,10.48c0,2.54,0.7,4.18,2.09,4.96
				c1.39,0.76,5.15,1.13,11.25,1.13h9.89c2.04,0,3.07,1.02,3.07,3.05v214.14c0,22.61,3.11,41.2,9.35,55.83
				c6.21,14.6,14.27,26.16,24.18,34.66c9.89,8.52,21.09,14.42,33.53,17.72s25.01,4.94,37.73,4.94c11.69,0,22.79-1.31,33.35-3.99
				c10.53-2.65,20.24-6.46,29.15-11.43c8.88-4.94,16.82-10.79,23.79-17.51c7.01-6.75,12.77-14.17,17.36-22.3
				c1.75-3.04,1.62-5.97-0.39-8.75C265.63,1153.98,262.34,1153.72,257.78,1156.01z"/>
			<path d="M594.96,910.82c-15.76-16.12-34.61-28.83-56.57-38.1c-21.99-9.27-46.07-13.91-72.23-13.91
				c-26.16,0-50.6,4.83-73.34,14.48c-22.74,9.66-42.49,22.79-59.25,39.43c-16.76,16.65-29.97,36.08-39.63,58.3
				c-9.66,22.24-14.47,45.81-14.47,70.69c0,25.16,4.45,48.59,13.34,70.3c8.88,21.71,21.22,40.63,36.95,56.78
				c15.76,16.12,34.61,28.82,56.57,38.08c21.99,9.27,46.04,13.91,72.23,13.91c26.16,0,50.6-4.82,73.34-14.47
				c22.74-9.66,42.49-22.79,59.25-39.42c16.76-16.63,29.97-36.03,39.63-58.12c9.66-22.09,14.47-45.71,14.47-70.87
				c0-24.9-4.45-48.26-13.34-70.11C623.03,945.94,610.69,926.96,594.96,910.82z M530.17,1102.3c-3.04,19.54-7.55,36.64-13.49,51.25
				c-6,14.6-13.5,26.11-22.51,34.48c-9.01,8.39-19.62,12.57-31.8,12.57c-12.21,0-22.81-4.17-31.83-12.57
				c-9.01-8.37-16.56-19.88-22.66-34.48c-6.1-14.6-10.63-31.7-13.55-51.25c-2.91-19.57-4.38-40.4-4.38-62.5
				c0-22.09,1.47-42.93,4.38-62.48c2.91-19.56,7.44-36.64,13.55-51.26c6.1-14.6,13.65-26.1,22.66-34.48
				c9.01-8.38,19.62-12.58,31.83-12.58c12.18,0,22.79,4.2,31.8,12.58c9.01,8.38,16.51,19.88,22.51,34.48
				c5.95,14.61,10.45,31.7,13.49,51.26c3.06,19.56,4.58,40.39,4.58,62.48C534.75,1061.9,533.23,1082.73,530.17,1102.3z"/>
			<path d="M1077.71,1200.23c-2.03-0.26-5.51-1.08-10.48-2.5c-4.94-1.39-10.02-3.81-15.25-7.24c-5.2-3.42-9.84-8.24-13.9-14.47
				c-4.04-6.23-6.08-14.42-6.08-24.57V878.24c0-6.59-3.06-9.9-9.17-9.9H884.91c-2.03,0-3.6,0.51-4.76,1.52
				c-1.16,1.02-1.85,2.16-2.09,3.44c-0.26,1.28,0.05,2.54,0.93,3.81c0.9,1.26,2.37,2.03,4.4,2.28c2.03,0.51,5.51,1.4,10.48,2.67
				c4.94,1.27,10.01,3.62,15.24,7.06c5.2,3.42,9.84,8.25,13.9,14.47c4.07,6.23,6.08,14.42,6.08,24.58v165
				c0,10.15-0.62,20.75-1.88,31.8c-1.29,11.05-4.1,21.14-8.4,30.31c-4.32,9.12-10.61,16.69-18.87,22.66
				c-8.24,5.97-19.49,8.96-33.71,8.96c-13.47,0-24.21-2.55-32.21-7.62c-7.98-5.1-14.21-11.74-18.64-20.01
				c-4.46-8.27-7.52-17.46-9.17-27.63c-1.65-10.14-2.6-20.32-2.86-30.49v-222.9c0-6.59-3.04-9.9-9.14-9.9H656.3
				c-2.04,0-3.63,0.51-4.76,1.52c-1.13,1.02-1.85,2.16-2.09,3.44c-0.26,1.28,0.05,2.54,0.95,3.81c0.88,1.26,2.34,2.03,4.38,2.28
				c2.03,0.51,5.51,1.4,10.48,2.67c4.94,1.27,10.02,3.62,15.22,7.06c5.23,3.42,9.86,8.25,13.93,14.47
				c4.04,6.23,6.08,14.42,6.08,24.58v148.98c0,9.14,0.21,19,0.57,29.54c0.38,10.53,1.65,21.14,3.84,31.8
				c2.14,10.69,5.69,20.96,10.66,30.88c4.94,9.91,12.05,18.67,21.35,26.29c9.27,7.62,20.94,13.72,35.05,18.28
				c14.09,4.58,31.55,6.85,52.38,6.85c25.16,0,46.25-3.99,63.27-12c16.99-7.98,30.85-17.33,41.51-27.99v22.48
				c0,2.78,0.85,4.81,2.5,6.1c1.65,1.26,3.86,1.9,6.64,1.9h137.95c2.04,0,3.63-0.51,4.76-1.55c1.13-1,1.83-2.14,2.09-3.43
				c0.26-1.26-0.05-2.47-0.95-3.6C1081.19,1201.54,1079.75,1200.72,1077.71,1200.23z"/>
			<path d="M2320.63,988.74c-18.54-5.58-33.32-11.1-44.39-16.57c-11.05-5.46-19.49-10.86-25.34-16.2
				c-5.84-5.33-9.66-10.85-11.43-16.57c-1.77-5.72-2.65-11.63-2.65-17.72c0-11.93,3.68-22.11,11.05-30.49
				c7.36-8.38,18.9-12.57,34.66-12.57c14.99,0,29.15,3.12,42.49,9.33c13.34,6.23,25.47,13.52,36.39,21.9
				c10.92,8.39,20.21,16.91,27.81,25.53c7.62,8.64,13.21,15.5,16.76,20.58c1.78,2.55,3.84,3.24,6.1,2.1
				c2.29-1.13,3.19-2.97,2.68-5.52c0-0.76-0.64-4.31-1.91-10.67c-1.29-6.35-2.55-13.32-3.81-20.95c-1.29-7.62-2.55-14.67-3.81-21.16
				c-1.26-6.48-1.91-9.96-1.91-10.47c-0.26-1.28-0.51-2.16-0.75-2.68c-0.28-0.5-1.16-1.13-2.68-1.91
				c-0.77-0.24-4.15-1.76-10.09-4.57c-5.97-2.8-13.98-5.77-24-8.95c-10.07-3.18-21.79-6.04-35.26-8.58
				c-13.49-2.54-28.07-3.81-43.83-3.81c-24.9,0-45.35,3.49-61.34,10.48c-16.02,6.99-28.66,15.62-37.93,25.9
				s-15.66,21.34-19.21,33.15c-3.58,11.82-5.36,22.67-5.36,32.58c0,12.95,1.57,25.21,4.76,36.77c3.17,11.56,8.32,22.35,15.43,32.39
				c7.11,10.04,16.38,19.11,27.81,27.24s25.54,15.12,42.31,20.94c18.28,6.62,32.88,13.16,43.83,19.65
				c10.92,6.46,19.29,13.01,25.13,19.62c5.85,6.59,9.66,13.21,11.43,19.8c1.78,6.62,2.65,13.34,2.65,20.19
				c0,12.95-4.12,23.38-12.36,31.26c-8.27,7.85-19.62,11.79-34.12,11.79c-12.44,0-24.13-2.09-35.05-6.28
				c-10.95-4.2-21.01-9.53-30.28-15.99c-9.27-6.49-17.66-13.54-25.16-21.14c-7.49-7.62-13.9-14.73-19.24-21.35
				c-5.36-6.62-9.53-12.21-12.56-16.76c-3.06-4.59-4.71-7.24-4.97-8.01c-1.26-2.03-3.17-2.73-5.69-2.09
				c-2.55,0.62-3.58,2.73-3.06,6.28c0.23,1.78,0.95,6.28,2.11,13.52c1.13,7.24,2.32,14.94,3.61,23.05c1.26,8.14,2.5,15.58,3.63,22.3
				c1.13,6.72,1.7,10.35,1.7,10.87c0.26,1.26,0.57,2.39,0.95,3.42c0.39,1,0.83,1.78,1.34,2.29c1,0.75,4.59,2.73,10.66,5.9
				c6.1,3.17,14.55,6.54,25.34,10.09c10.79,3.55,24.02,6.8,39.63,9.71c15.63,2.93,33.48,4.38,53.54,4.38
				c23.87,0,44.44-2.78,61.72-8.37c17.28-5.59,31.49-13.26,42.67-23.05c11.18-9.79,19.44-21.35,24.77-34.69
				c5.33-13.34,8.01-27.86,8.01-43.62c0-30.98-9.53-56.26-28.58-75.81C2385.78,1015.67,2357.71,1000.17,2320.63,988.74z"/>
			<path d="M2780.54,979.98c-1.8-9.4-4.89-19.43-9.35-30.1c-4.46-10.67-10.28-21.4-17.54-32.2c-7.24-10.79-16.38-20.57-27.42-29.33
				c-11.05-8.77-24.13-15.87-39.24-21.33c-15.11-5.47-32.57-8.2-52.4-8.2c-21.06,0-41.77,4.07-62.09,12.19
				c-20.34,8.14-38.5,20.01-54.51,35.63c-15.99,15.62-28.94,34.99-38.86,58.11c-9.89,23.11-14.86,49.67-14.86,79.65
				c0,27.43,3.99,52.07,12.03,73.91c7.98,21.86,19.29,40.4,33.89,55.65c14.6,15.22,32.21,26.86,52.76,34.84
				c20.58,8.01,43.57,12,68.99,12c16.77,0,31.93-1.7,45.53-5.13c13.57-3.42,25.67-7.83,36.2-13.16
				c10.53-5.33,19.6-11.18,27.24-17.51c7.6-6.36,13.96-12.46,19.03-18.28c5.1-5.85,8.96-11,11.64-15.45
				c2.68-4.43,4.38-7.42,5.13-8.96c2.03-4.3,2.03-7.54,0-9.71c-2.01-2.16-4.81-2.47-8.37-0.95c-2.29,1.03-5.85,3.19-10.66,6.49
				c-4.84,3.3-11.05,6.8-18.7,10.48c-7.6,3.68-16.56,6.93-26.86,9.71c-10.28,2.78-22.02,4.2-35.23,4.2
				c-17.28,0-32.47-2.81-45.53-8.39c-13.11-5.59-24.03-14.29-32.78-26.11c-8.75-11.79-15.43-26.99-20.01-45.53
				c-4.56-18.54-6.85-40.76-6.85-66.67c0-4.32,2.04-6.49,6.1-6.49h196.22c2.78,0,5.02-0.49,6.67-1.52c1.65-1,2.47-2.79,2.47-5.33
				C2783.19,996.88,2782.29,989.38,2780.54,979.98z M2680.49,980.36c-4.45,3.31-8.7,5.09-12.75,5.34c-1.29,0.26-4.27,0.44-8.96,0.57
				c-4.71,0.13-10.3,0.32-16.77,0.57c-6.49,0.26-13.29,0.51-20.39,0.77c-7.11,0.25-13.78,0.51-19.98,0.76
				c-6.26,0.26-11.51,0.45-15.84,0.57c-4.3,0.13-6.85,0.19-7.62,0.19c-3.55,0-5.07-1.65-4.56-4.96c0.23-3.3,0.82-8.19,1.7-14.66
				c0.9-6.48,2.24-13.59,4.02-21.34c1.75-7.75,4.04-15.68,6.85-23.82c2.81-8.12,6.28-15.55,10.48-22.29
				c4.2-6.73,9.19-12.19,15.04-16.39c5.87-4.18,12.72-6.28,20.6-6.28c9.89,0,18.28,2.99,25.13,8.96
				c6.88,5.96,12.51,13.28,16.94,21.9c4.45,8.64,7.7,17.78,9.73,27.44c2.04,9.66,3.06,18.17,3.06,25.53
				C2687.19,971.34,2684.95,977.06,2680.49,980.36z"/>
			<g>
				<path d="M1593.94,989.92c0.15,2.32,0.57,4.51,1.21,6.63c0.05-1.58,0.21-3.86,0.54-6.58L1593.94,989.92z"/>
				<path d="M1485.17,1076.83c0.03,0.03,0.05,0.03,0.08,0.03l0.28-0.18l0.33-0.23c-0.02-0.02-0.05-0.08-0.08-0.1l-0.28,0.23
					L1485.17,1076.83z"/>
				<path d="M1397.87,1106.11c-0.15-0.21-0.33-0.41-0.49-0.62l0.08,0.21L1397.87,1106.11z"/>
				<path d="M1388.55,1094.65l1.91,3.84c0.85,0.88,1.7,1.75,2.55,2.65l-2.63-3.81C1389.76,1096.45,1389.14,1095.55,1388.55,1094.65z
					"/>
				<polygon points="1567.31,984.82 1567.11,984.9 1567.11,984.9 1567.11,984.9 1567.34,984.86 				"/>
				<path d="M1476.1,1073.04l0.46,0.05c-0.05-0.18-0.13-0.36-0.21-0.54C1476.26,1072.71,1476.2,1072.89,1476.1,1073.04z"/>
				<path d="M1536.51,1234.09v-0.03l-0.15-1.39c-0.1,0.03-0.21,0.03-0.31,0.03L1536.51,1234.09z"/>
				<path d="M1418.86,892.02c-0.21,0-0.39-0.03-0.59-0.03c0.21,0.09,0.39,0.18,0.59,0.27V892.02z"/>
				<path d="M1372.07,1068.9l1.13,4.81l0.33-0.05c-0.62-2.34-1.06-4.69-1.18-6.98L1372.07,1068.9z"/>
				<path d="M1580.19,1212.23l0.05-1.83l-0.46,1.8C1579.91,1212.23,1580.03,1212.25,1580.19,1212.23z"/>
				<path d="M1644.44,786.89c-10.74,7.22-23.87,9.86-38.96,7.85c1.65,1.33,2.91,3.12,4.02,4.82c1.29,1.94,2.5,3.78,4.12,4.73
					c2.55,1.45,5.12,0.05,8.75-2.27c1.16-0.72,2.27-1.43,3.32-1.93c6.7-3.23,17.17,0.1,22.17,2.96c1.13,0.64,2.24,1.3,3.35,1.96
					c2.81-14.24,6.85-28.16,13.67-40.94c-0.28-0.9-0.57-1.8-0.77-2.71C1659.16,772.96,1652.7,781.33,1644.44,786.89z"/>
				<path d="M1266.67,1182.67c1.57-1.39,3.17-2.68,4.69-3.79c1.34-0.98,2.7-1.98,4.1-2.93c-2.63,0.23-5.26,0.49-7.88,0.75
					c-1.85,0.21-3.71,0.39-5.56,0.57c-5.31,0.49-10.71,0.88-16.02,0.77c-6.1-0.1-12.46-0.67-17.51-3.84
					c-6.28-3.94-8.42-10.33-10.07-16.56l-0.75-2.86c-1.21-4.63-2.34-9.01-4.25-13.18c-1.49-3.24-3.45-6.08-5.48-9.09
					c-0.77-1.13-1.55-2.27-2.32-3.43c-7-10.79-3.58-22.43,9.89-33.68l1.78-1.44c3.58-2.96,7.26-5.98,9.66-9.73
					c3.25-5.15,4.69-11.28,5.77-16.61c2.57-12.88,6.54-25.75,17.77-32.81c0.95-0.59,1.93-1.11,2.91-1.6V645.43
					c0-3.55-1.21-5.45-3.63-5.7c-2.42-0.26-4.76,0.37-7.05,1.91c-8.63,5.85-18.41,11.61-29.33,17.33
					c-10.95,5.72-22.22,11.05-33.92,16.01c-11.69,4.94-23.3,9.4-34.86,13.34c-11.56,3.94-22.3,7.04-32.19,9.33
					c-3.84,1.02-5.67,2.86-5.54,5.52c0.13,2.67,1.83,4.38,5.15,5.14c0.75,0.26,2.86,0.76,6.28,1.53c3.43,0.76,7.16,1.65,11.25,2.67
					c4.04,1.02,7.67,1.91,10.84,2.67c3.17,0.76,5.02,1.14,5.53,1.14c3.04,0.76,4.59,2.8,4.59,6.09v427.15
					c0,10.4-2.24,18.8-6.69,25.13c-4.43,6.36-9.53,11.38-15.25,15.06c-5.72,3.68-11.3,6.28-16.74,7.8
					c-5.48,1.52-9.22,2.42-11.25,2.68c-2.03,0.49-3.5,1.31-4.4,2.47c-0.88,1.13-1.18,2.34-0.93,3.6c0.23,1.29,0.93,2.42,2.09,3.43
					c1.16,1.03,2.73,1.55,4.76,1.55h152.01c-0.36-1.6-0.59-3.24-0.51-5.05C1254.08,1196.29,1260.26,1188.36,1266.67,1182.67z"/>
				<path d="M2124.97,1202.7c-0.9-1.16-2.37-1.98-4.38-2.47c-2.03-0.26-5.51-1.08-10.48-2.5c-4.97-1.39-10.04-3.81-15.25-7.24
					c-5.2-3.42-9.86-8.24-13.9-14.47c-4.07-6.23-6.1-14.42-6.1-24.57V878.24c0-6.59-3.04-9.9-9.14-9.9h-137.95
					c-2.01,0-3.6,0.51-4.74,1.52c-1.16,1.02-1.85,2.16-2.11,3.44c-0.26,1.28,0.05,2.54,0.95,3.81c0.9,1.26,2.34,2.03,4.38,2.28
					c2.04,0.51,5.54,1.4,10.48,2.67c4.94,1.27,10.04,3.62,15.24,7.06c5.2,3.42,9.84,8.25,13.9,14.47c4.07,6.23,6.1,14.42,6.1,24.58
					v165c0,10.15-0.64,20.75-1.91,31.8c-1.26,11.05-4.07,21.14-8.37,30.31c-4.32,9.12-10.61,16.69-18.87,22.66
					c-8.27,5.97-19.49,8.96-33.73,8.96c-13.44,0-24.18-2.55-32.19-7.62c-8.01-5.1-14.24-11.74-18.67-20.01
					c-4.45-8.27-7.49-17.46-9.14-27.63c-1.65-10.14-2.6-20.32-2.86-30.49v-222.9c0-6.59-3.04-9.9-9.14-9.9h-121.88
					c1.75,3.42,3.37,6.92,4.66,10.57c1.11,3.14,1.88,6.34,2.4,9.53c0.51,3.32,0.72,6.63,0.64,9.91c1.57-1.93,3.45-3.65,5.61-5.12
					c6.59-4.47,15.53-6.58,24.2-5.37c9.94,1.35,17.59,6.72,20.99,14.72c5.02,11.86,2.06,24.26-0.77,36.26
					c-0.98,4.1-1.88,7.96-2.5,11.79l-0.18,1.12c-0.67,4.07-1.52,9.13,0.82,12.12c1.34,1.67,3.4,2.71,5.59,3.8
					c1.29,0.63,2.6,1.29,3.84,2.11c10.17,6.84,15.94,18.1,15.06,29.42c-0.64,7.94-3.3,15.11-5.87,22.04
					c-1.39,3.68-2.81,7.49-3.89,11.36l-0.21,2.01c3.45,2.55,6.49,5.43,9.09,8.7c0.98,1.24,2.06,2.5,3.12,3.76
					c4.38,5.18,9.32,11.02,11.02,17.82c2.03,8.03-0.77,14.91-8.29,20.47c-9.27,6.8-10.12,14.24-8.45,24.77
					c0.9,5.82,1.47,13.08-2.32,17.84c-2.24,2.78-5.69,4.33-10.3,4.64c-1.72,0.1-3.45,0.1-5.12,0.08l-6.31,2.44
					c-5.92,2.32-11.77,6.85-17.66,13.78c2.06,6.98,4.69,13.8,8.01,20.45c4.97,9.91,12.08,18.67,21.35,26.29
					c9.27,7.62,20.93,13.72,35.05,18.28c14.08,4.58,31.57,6.85,52.4,6.85c25.13,0,46.22-3.99,63.24-12
					c17.02-7.98,30.85-17.33,41.54-27.99v22.48c0,2.78,0.82,4.81,2.47,6.1c1.65,1.26,3.89,1.9,6.67,1.9h137.92
					c2.04,0,3.63-0.51,4.79-1.55c1.13-1,1.83-2.14,2.09-3.43C2126.16,1205.04,2125.85,1203.83,2124.97,1202.7z"/>
				<path d="M1655.38,702.22l1.85,2.2c-0.03-3.17,0-6.32,0.02-9.37v-0.35c-0.05-0.01-0.08-0.01-0.13-0.03
					c-0.52-0.09-0.98-0.41-1.29-0.88c-0.8-1.18-1.6-2.38-2.42-3.6c-7.7-11.41-16.43-24.34-15.68-38.1c0.03-0.59,0.51-1.07,1.11-1.11
					c0.54-0.08,1.05,0.33,1.18,0.9c2.91,13.75,10.35,25.89,17.33,36.71c0.02-1.81,0.1-3.57,0.18-5.28c0-0.09,0-0.2,0-0.3
					c0,0-0.03,0-0.05,0c-0.77,0-1.49-0.45-1.83-1.24c-1.62-3.77-3.17-7.59-4.66-11.41c-1.57-3.9-3.17-7.92-4.87-11.83
					c-0.13-0.28-0.13-0.61-0.03-0.88c0.1-0.28,0.31-0.53,0.59-0.67c0.62-0.32,1.31-0.12,1.67,0.45c1.13,1.93,2.21,3.81,3.19,5.65
					c0.31,0.55,0.59,1.11,0.88,1.66c0.7,1.29,1.34,2.55,1.93,3.8c0.31,0.62,0.62,1.25,0.9,1.85c0.54,1.18,1.05,2.35,1.54,3.51
					c0.23,0.58,0.49,1.16,0.72,1.72c0.1,0.25,0.23,0.52,0.33,0.76c0-0.19,0.03-0.37,0.03-0.57c0.1-1.4,0.21-2.77,0.31-4.11
					c0-0.17,0-0.35,0.03-0.51l0,0c-0.65,0-1.26-0.36-1.57-1l-1.08-2.09c-9.27-18.13-18.88-36.88-20.63-57.36l-0.08-0.88l1-0.31
					c0.64-0.12,1.11,0.27,1.24,0.82c0.62,2.48,1.29,4.93,2.01,7.35c0.31,1.08,0.67,2.13,1,3.19c0.41,1.33,0.83,2.67,1.26,3.98
					c0.41,1.24,0.88,2.46,1.31,3.68c0.41,1.11,0.77,2.23,1.18,3.32c0.51,1.3,1.03,2.58,1.55,3.86c0.39,1.02,0.77,2.05,1.18,3.05
					c0.57,1.34,1.13,2.65,1.7,3.97c0.41,0.97,0.8,1.93,1.24,2.88c0.56,1.33,1.18,2.65,1.77,3.98c0.44,0.97,0.85,1.93,1.29,2.9
					c0.59,1.28,1.18,2.55,1.77,3.82c0.52,1.06,0.98,2.11,1.5,3.17c0.46,1,0.93,2.02,1.42,3.02c0.49,1.03,0.98,2.06,1.47,3.1
					c0.02-0.28,0.08-0.54,0.1-0.83c0.13-1.18,0.28-2.35,0.44-3.5c0.08-0.42,0.13-0.86,0.18-1.29c0.23-1.48,0.46-2.95,0.7-4.39
					c-0.33-0.16-0.64-0.41-0.88-0.76c-5.43-7.96-9.58-17.69-12.08-28.15c-0.16-0.7,0.23-1.37,0.88-1.58
					c0.69-0.21,1.39,0.13,1.65,0.77c2.96,7.36,6.62,15.89,11.51,24.1c0.28-1.33,0.57-2.55,0.85-3.69
					c-8.83-12.19-13.7-31.67-12.15-48.65c0.05-0.63,0.57-1.11,1.24-1.11l0,0c0.69,0.01,1.23,0.53,1.29,1.2
					c0.33,7.29,1.11,16.84,4.07,26.15c1.67,5.32,4.07,10.35,6.39,15.22c0.26,0.5,0.49,1,0.72,1.51c0.85-2.69,1.8-5.36,2.91-8.02
					c0-0.05,0.02-0.09,0.02-0.14c-0.1-0.03-0.23-0.1-0.33-0.17c-0.08-0.04-0.18-0.05-0.23-0.1c-0.23-0.16-0.44-0.36-0.57-0.64
					c-3.92-7.91-6.03-16.36-6.28-25.21c-0.03-1.26-0.03-2.54,0-3.81v-0.01l0.03-0.88h0.02l1-0.14h0.03c0.05,0,0.08,0.04,0.1,0.05
					l0.77-0.06l0.18,1c0.18,2.29,0.46,4.59,0.85,6.86c0.13,0.79,0.33,1.56,0.49,2.34c0.28,1.48,0.57,2.97,0.95,4.44
					c0.26,0.94,0.56,1.87,0.85,2.8c0.39,1.3,0.77,2.6,1.21,3.89c0.36,0.98,0.8,1.95,1.18,2.91c0.41,1.05,0.83,2.11,1.29,3.17
					c0.05-0.1,0.1-0.19,0.16-0.3c0.7-1.5,1.42-3.01,2.19-4.52c-0.23-0.23-0.41-0.54-0.51-0.88c-5.18-17.28-5.41-32.46-0.75-46.39
					c0.23-0.68,0.95-1.07,1.65-0.88c0.67,0.18,1.06,0.85,0.93,1.53c-2.93,14.02-2.47,27.28,1.47,41.55c1.44-2.5,3.04-5.02,4.84-7.67
					c-3.12-7.92-2.78-16.48-1.96-22.33c0.08-0.58,0.59-0.99,1.21-0.93c0.59,0.05,1.03,0.54,1.03,1.13
					c-0.21,5.51,0.57,11.16,2.52,18.1c0.67-0.91,1.34-1.81,2.04-2.73l0,0c-3.89-11.46-2.47-23.74,3.76-32.86
					c0.31-0.46,0.93-0.62,1.44-0.36l0.75,0.37l-0.21,0.95c-3.35,9.77-5.05,18.35-2.6,27.93c3.53-4.31,7.39-8.63,11.79-13.11
					c1.13-8.12,5.43-16.1,9.22-23.13l1.39-2.63c0.33-0.64,1.08-0.9,1.78-0.64c0.67,0.26,1.03,0.95,0.88,1.65
					c-1.18,4.6-2.96,8.97-4.69,13.22c-0.7,1.66-1.39,3.38-2.04,5.1c5.25-5.02,11.15-10.24,18.21-16.21
					c0.46-0.39,1.11-0.36,1.55,0.05c0.41,0.4,0.46,1.07,0.1,1.55c-5.1,6.55-10.97,12.55-16.76,18.36c0.44-0.1,0.9-0.21,1.34-0.3
					c1.05-0.23,2.11-0.46,3.11-0.75c3.55-0.99,7.31-2.14,10.61-3.8l0.75-0.37l0.67,0.76c0.31,0.46,0.18,1.1-0.26,1.44
					c-3.14,2.46-6.18,4.17-9.55,5.4l-1.18,0.44c-0.77,0.28-1.55,0.58-2.37,0.85c-2.42,0.84-4.97,1.56-7.42,1.56l0,0l0,0
					c-0.18,0-0.51-0.05-0.77-0.17l-1.05,1.08l-0.08,0.25c-0.15,0.81-0.82,1.38-1.62,1.48c-2.86,2.91-5.12,5.32-7.13,7.58
					c-0.72,1.17-1.44,2.42-2.19,3.7c15.73-5.45,26.7-11.79,35.46-20.43c0.41-0.42,1.11-0.46,1.6-0.08c0.46,0.36,0.57,1,0.26,1.52
					c-8.16,13.22-25.75,19.92-38.26,23.81c-0.57,0.18-1.16,0.12-1.67-0.17c-1.42,2.6-2.76,5.18-4.04,7.74
					c-0.36,0.75-0.72,1.48-1.08,2.23c-0.46,0.94-0.88,1.89-1.31,2.83c2.09-0.71,4.2-1.39,6.31-2.09
					c12.41-4.1,25.26-8.32,35.82-16.49c0.26-0.18,0.54-0.26,0.83-0.23c0.28,0.03,0.54,0.16,0.75,0.39c0.44,0.46,0.44,1.16,0.03,1.62
					c-9.61,10.3-23.41,14.74-36.77,19.03c-2.39,0.77-4.76,1.53-7.08,2.32c-0.23,0.08-0.44,0.11-0.67,0.11
					c-0.05,0-0.08-0.04-0.13-0.04c-0.39-0.03-0.75-0.12-1.05-0.33l0,0c-2.42,5.63-4.51,11.21-6.26,16.83
					c3.99-1.43,8.01-2.72,11.92-3.98c10.09-3.25,19.62-6.31,28.95-11.63c0.51-0.31,1.18-0.18,1.57,0.31
					c0.36,0.48,0.31,1.13-0.1,1.56c-8.03,8.21-19.59,11.54-30.77,14.74c-4.38,1.25-8.47,2.43-12.36,3.87
					c-0.23,0.09-0.46,0.14-0.7,0.14c-1.57,5.7-2.76,11.38-3.58,16.92c-0.23,1.62-0.46,3.3-0.67,5.09c6.44-6.1,14.5-10.04,22.3-13.87
					c6.41-3.14,13.06-6.4,18.7-10.82c0.46-0.36,1.13-0.31,1.55,0.14c0.41,0.46,0.41,1.15,0,1.58c-5.9,6.28-13.55,10.12-20.96,13.84
					c-7.75,3.9-15.76,7.92-21.6,14.73c-0.16,0.21-0.36,0.36-0.59,0.47c-0.44,4.94-0.67,9.88-0.77,14.72
					c4.22-3.73,9.56-6.4,14.34-8.78l1.42-0.71c7.16-3.58,14.06-7.21,20.21-12.41c0.54-0.45,1.31-0.41,1.8,0.08
					c0.46,0.48,0.49,1.24,0.02,1.75c-5.17,5.95-12.2,9.57-18.44,12.77c-7.24,3.72-13.42,7.63-19.39,12.3
					c0.02,4.57,0.15,9.17,0.44,13.71c4.27-2.82,9.06-4.3,13.72-5.73c2.93-0.91,5.97-1.84,8.88-3.11
					c11.38-4.97,20.21-13.35,29.64-23.05c-1.49-0.73-2.91-1.56-4.38-2.42l-0.95-0.55c-0.62-0.37-1-0.98-1.03-1.67
					c-0.05-0.7,0.28-1.39,0.88-1.85c20.81-15.7,32.34-36.72,34.33-62.51c-0.28,0.5-0.57,1.02-0.85,1.53
					c-0.64,1.12-1.26,2.24-1.88,3.37c-0.49,0.9-1.52,1.3-2.47,0.97c-1-0.35-1.6-1.31-1.42-2.36c2.81-17.41,5.36-38.07,3.24-59.66
					c-27.94,1.44-59.48,3.23-85.49,21.76c-0.8,0.55-1.88,0.54-2.73-0.05c-0.85-0.59-1.26-1.61-1-2.56c0.16-0.57,0.33-1.21,0.54-1.89
					c-18.03,17.99-30.31,44.78-33.04,72.44c-0.1,0.86-0.67,1.56-1.55,1.87c-0.39,0.14-0.8,0.17-1.16,0.14
					c3.84,11.46,8.78,21.97,14.73,31.27C1640.55,684.83,1648.09,693.67,1655.38,702.22z"/>
				<path d="M1558.45,770.63c0.98,0.27,1.62,1.2,1.49,2.22c-0.1,0.99-0.88,1.72-1.88,1.78c-1.42,0.06-2.83,0.27-4.25,0.53
					c11.69,6.2,25.9,12.31,40.97,12.66c5.02,0.11,10.15-0.41,15.27-1.78c0.98-0.26,1.96,0.21,2.37,1.13c0.41,0.9,0.1,1.92-0.72,2.47
					c-0.77,0.5-1.44,1.03-2.06,1.55c9.89,0.84,23.15-0.16,33.89-8.47c8.06-6.23,14.47-15.06,19.57-26.99
					c-0.1-1.03-0.15-2.14-0.15-3.48c-2.47-1.65-5.15-3.18-7.91-4.58c-5.59,14.64-16.94,27.24-30.54,33.84
					c-0.67,0.33-1.47,0.09-1.83-0.55c-0.33-0.62-0.15-1.39,0.46-1.79c12.8-8.5,22.22-19.7,28.04-33.32
					c-5.15-2.29-10.66-4.16-16.79-5.67c-9.45,17.79-21.55,30.19-36,36.86c-0.67,0.32-1.44,0.06-1.8-0.58
					c-0.36-0.63-0.16-1.38,0.46-1.78c13.75-8.95,24.21-20.26,32.81-35.56c-6.05-1.24-12.57-2.11-19.88-2.68
					c-0.23,0.31-0.57,0.55-0.98,0.68c-0.36,0.12-0.7,0.14-1.06,0.09c-6.57,10.26-17.9,19.21-34.61,27.35
					c-0.62,0.3-1.31,0.09-1.65-0.5c-0.33-0.57-0.15-1.28,0.41-1.65l1.57-1.04c11-7.21,22.33-14.65,29.87-25.32
					c-3.09-0.16-6.2-0.27-9.24-0.32c-1.67-0.04-3.38-0.07-5.07-0.08c-0.33,0.18-0.7,0.27-1.06,0.27c-0.33,0-0.67-0.09-0.95-0.27
					h-0.49c-7.26,7.88-17.74,11.62-27.89,15.23c-2.16,0.76-4.3,1.53-6.36,2.32c-0.15,0.06-0.36,0.09-0.51,0.09
					c-0.13,0-0.23-0.04-0.33-0.07c-0.05-0.01-0.13-0.01-0.18-0.04c-0.33-0.13-0.62-0.39-0.8-0.75c-0.33-0.72-0.08-1.55,0.59-1.93
					c3.84-2.19,7.98-3.94,11.97-5.63c6.23-2.65,12.18-5.16,17.23-9.22c-5.43,0.01-11.02,0.04-16.56-0.1
					c-4.51,2.46-10.04,3.64-14.91,4.68l-2.06,0.44c-7.13,1.56-12.95,2.56-18.36,3.17c-0.67,0.06-1.26-0.36-1.42-1.02
					c-0.16-0.7,0.23-1.38,0.88-1.6c4.4-1.47,8.96-2.51,13.39-3.51c1.47-0.35,2.96-0.68,4.43-1.03c2.03-0.49,4.09-1.11,6.1-1.72
					c-9.27-0.76-16.97-2.18-23.9-4.4c-0.59-0.21-0.93-0.81-0.8-1.4c0.13-0.61,0.72-0.99,1.34-0.9c12.02,1.58,23.95,2.18,34.32,2.51
					c-7.29-5.5-14.09-9.89-21.14-13.67c-0.54-0.31-0.8-0.98-0.54-1.56c0.23-0.59,0.85-0.89,1.44-0.74
					c9.97,2.78,18.44,9.21,26.96,16.15c2.76,0.07,5.54,0.12,8.29,0.18l6.62,0.15c-6.87-12.17-17.12-20.48-26.27-27.03
					c-0.54-0.39-0.67-1.07-0.33-1.63c0.36-0.59,1.08-0.82,1.67-0.51c13.03,6.53,23.8,17.19,29.61,29.3
					c4.35,0.1,8.96,0.25,13.57,0.46c0.62,0.03,1.26,0.06,1.88,0.1c-5.74-12.59-16.04-22.44-29.1-27.86
					c-0.59-0.24-0.88-0.91-0.67-1.53c0.21-0.63,0.85-0.99,1.49-0.82c14.06,3.6,27.27,15.76,32.91,30.28
					c0.08,0.08,0.13,0.16,0.18,0.25c7.13,0.5,13.49,1.27,19.34,2.34c-1.36-1.8-2.73-3.63-4.07-5.46
					c-7.08-9.58-13.75-18.62-24.28-24.37c-0.54-0.3-0.75-0.95-0.49-1.53c0.23-0.54,0.85-0.8,1.42-0.6
					c14.09,5.08,24.31,18.84,33.24,32.95c0.05,0.08,0.1,0.15,0.13,0.25c5.23,1.21,10.2,2.76,14.78,4.6
					c-1.44-2.11-2.81-4.25-4.12-6.32c-5.61-8.7-10.87-16.93-19.91-23.07c-0.54-0.36-0.69-1.04-0.38-1.6
					c0.31-0.54,0.98-0.73,1.55-0.48c13.34,6.26,23.33,22.05,29.35,34.21c0.03,0.08,0.08,0.17,0.11,0.25
					c1.88,0.95,3.63,1.93,5.3,2.95c-8.06-25.26-24.02-43.25-45.32-51.08c0.39,0.62,0.77,1.23,1.13,1.87
					c0.41,0.71,0.41,1.58-0.05,2.27c-0.49,0.71-1.29,1.04-2.16,0.91c-4.17-0.66-8.34-1.44-12.41-2.21
					c-18.41-3.48-35.85-6.77-53.23,1.13c1.21,0.78,2.39,1.57,3.63,2.3c0.7,0.4,1.13,1.22,1.08,2.02c-0.03,0.72-0.44,1.34-1.08,1.63
					c-6.49,3.13-13.31,5.86-19.88,8.5c-11.67,4.67-23.69,9.49-34.33,16.66c10.38,4.44,18.88,11.99,27.09,19.3
					C1535.59,758.25,1545.58,767.13,1558.45,770.63z"/>
				<path d="M1745.4,725.68c1.18-0.44,2.37-0.89,3.55-1.34c-12.64-6.53-27.71-6.54-42.15-5.94c-0.88-0.03-1.7-0.46-2.09-1.27
					c-0.36-0.77-0.23-1.69,0.28-2.36c-14.45,3.81-25,10.13-31.42,18.85c-5.18,7.03-7.06,15.01-5.64,23.77
					c2.09-7.56,6.54-14.11,12.39-18.04c0.49-0.35,1.11-0.26,1.52,0.18c0.39,0.45,0.41,1.13,0,1.58
					c-6.72,7.61-10.2,14.72-11.33,23.05c-0.05,0.42-0.23,0.8-0.52,1.07c0.85,2.28,1.86,4.57,3.07,6.84
					c-0.21-6.09,2.42-13.06,4.99-18.35c4.4-9.04,9.12-15.14,14.83-19.24l0.67-0.48l0.77,0.61c0.41,0.41,0.44,1.07,0.08,1.51
					c-5.64,6.99-9.53,13.23-12.23,19.65c-2.91,6.9-3.53,12.95-4.02,20.09c1.06-0.05,2.11-0.12,3.17-0.18l1.42-0.09
					c0.54-7.33,2.96-14.04,6.93-19.42c0.41-0.53,1.11-0.64,1.67-0.3c0.57,0.37,0.77,1.09,0.46,1.69
					c-2.96,5.59-4.69,11.26-5.41,17.83l1.37-0.08c1.03-0.05,2.09-0.12,3.14-0.18c1.57-16.94,8.19-28.51,19.65-34.55l0.75-0.38
					l0.67,0.73c0.31,0.45,0.23,1.04-0.18,1.4c-9.53,8.12-14.47,17.89-16.38,32.47c1.37-0.1,2.71-0.22,4.04-0.35l2.11-0.18
					c1.26-7.91,6.59-15.7,10.51-20.91l0.49-0.64l0.9,0.35c0.49,0.26,0.72,0.81,0.54,1.33c-1.31,3.81-2.96,7.58-4.56,11.21
					c-1.16,2.62-2.32,5.32-3.37,8.02c-0.03,0.08-0.08,0.17-0.1,0.26l1.88-0.15c1.6-0.14,3.14-0.27,4.71-0.41
					c0.1-0.5,0.18-1,0.33-1.49c0.03-0.14,0.08-0.27,0.13-0.4c2.93-11.65,10.74-22.45,21.5-29.68l0.67-0.46l1.24,1.27l-1.31,1.6
					c-7.36,8.25-14.34,16.06-17.59,26.92c0,0.14,0,0.23,0,0.33c0,0.47-0.08,0.97-0.18,1.44l3.68-0.37c0.03-0.07,0.05-0.14,0.08-0.21
					c2.39-6.01,5.18-11,8.53-15.23c0.51-0.63,1.36-0.75,2.06-0.27c0.15,0.12,0.31,0.26,0.41,0.41c0.23,0.32,0.31,0.71,0.26,1.08
					c0,0.18-0.08,0.37-0.18,0.54c-2.21,3.83-3.96,7.12-5.38,10.2c-0.46,1.03-0.9,2.03-1.29,3.02l1.21-0.13
					c2.86-6.45,9.07-17.47,18.82-20.16c0.51-0.16,1.11,0.1,1.34,0.62c0.26,0.51,0.1,1.13-0.36,1.47
					c-6.9,4.99-11.54,10.33-15.24,17.61c2.86-0.3,5.74-0.62,8.6-0.93c0.03-0.22,0.08-0.44,0.18-0.64
					c4.84-10.34,15.22-17.23,22.58-21.52c0.85-0.5,1.85-0.24,2.39,0.58c0.52,0.83,0.31,1.87-0.49,2.42
					c-7.6,5.23-15.37,10.58-20.04,18.66c2.5-0.26,5-0.53,7.49-0.77c3.81-4.92,8.96-8.1,14.52-8.93c0.57-0.09,1.11,0.25,1.29,0.81
					c0.18,0.57-0.05,1.17-0.54,1.44c-3.6,1.93-6.49,3.92-8.91,6.13c9.63-0.81,17.23-1.1,24.28-1c0.77,0.01,1.39,0.59,1.44,1.36
					c0.03,0.77-0.51,1.42-1.29,1.52c-10.41,1.22-21.01,2.22-31.26,3.19c-2.81,0.26-5.61,0.53-8.45,0.8
					c8.32,6.45,17.95,9.13,29.69,11.07c0.64,0.1,1.11,0.68,1.03,1.37c-0.05,0.66-0.56,1.16-1.23,1.16l0,0
					c-13.55-0.09-25.83-4.58-34.61-12.64c-0.13-0.13-0.23-0.27-0.33-0.41c-3.55,0.35-7.01,0.7-10.48,1.08
					c-2.88,0.31-5.79,0.59-8.7,0.89l-1.77,0.18c8.39,14.06,27.45,16.57,42.82,18.59l1.13,0.16l0.05,1.07
					c-0.05,0.59-0.59,1.08-1.13,1.02c-15.99-0.55-38.29-3.25-47.36-20.12c-0.02-0.08-0.08-0.17-0.1-0.25
					c-7.16,0.7-13.16,1.21-18.7,1.61c5.92,15.98,26.63,24.77,43.55,26.17l0.88,0.08l0.13,1.04c-0.03,0.58-0.49,1.02-1.05,1.03
					c-0.16,0-0.31,0-0.46,0c-18.77,0-40.97-9.39-47.38-27.48c-0.05-0.18-0.1-0.35-0.1-0.53c-4.33,0.28-8.08,0.49-11.64,0.64
					c1.62,15.82,12.13,24.32,23.28,31.14c0.57,0.36,0.77,1.04,0.49,1.65c-0.31,0.59-1,0.88-1.65,0.63
					c-14.22-5.36-23.85-17.22-25.98-31.88c-3.97,6.06-7.44,12.91-4.94,19.66c2.04,5.57,6.77,10.3,14.45,14.46
					c8.86,4.82,19.11,8.36,32.93,11.38c-0.13-0.17-0.26-0.33-0.41-0.5c-0.57-0.67-0.72-1.52-0.41-2.28
					c0.28-0.72,0.95-1.22,1.78-1.34c5.48-0.72,11.07-1.22,16.45-1.71c7.52-0.67,15.3-1.37,22.87-2.69c-0.69-0.3-1.39-0.59-2.09-0.85
					c-0.77-0.3-1.26-1.07-1.21-1.96c0.05-0.95,0.67-1.74,1.52-1.96c13.85-3.49,25.24-8.83,34.74-16.29
					c-1.57-0.57-3.14-1.12-4.74-1.6c-0.75-0.22-1.36-0.89-1.55-1.67c-0.15-0.7,0.05-1.38,0.59-1.86c2.81-2.55,6.18-4.74,9.45-6.86
					c6.64-4.34,13.55-8.83,15.97-16.51c-3.01-2.6-5.95-5.29-8.78-7.91c-6.41-5.88-13.06-11.97-20.65-17.01
					c-0.75-0.49-1.11-1.35-0.93-2.19c0.18-0.84,0.88-1.47,1.78-1.6c0.36-0.05,0.72-0.1,1.08-0.17c-7.73-4.06-16.43-6.09-24.9-8.07
					c-3.61-0.85-7.31-1.71-10.89-2.73c-0.9-0.25-1.5-1-1.52-1.92C1743.99,726.79,1744.53,725.99,1745.4,725.68z"/>
				<path d="M1652.11,668.13c0.21,0.51,0.41,1.04,0.62,1.56c1.52,3.8,3.04,7.61,4.66,11.37l0.18,0.07h0.05
					c-1.42-4.16-3.24-8.47-5.53-13.03C1652.08,668.09,1652.08,668.11,1652.11,668.13z"/>
				<polygon points="1666.3,631.23 1667.15,630.81 1667.15,630.8 				"/>
				<path d="M1558.32,1054.3l-0.05-0.18c-0.28-1.31-0.54-2.63-0.85-3.97c-0.44,0.31-0.88,0.62-1.29,0.95
					c0.57,1.21,1.03,2.5,1.36,3.84C1557.78,1054.74,1558.04,1054.5,1558.32,1054.3z"/>
				<path d="M1683.55,993.85c7.8-13.18,0.77-29.84-5.18-41.23c-2.19-4.21-4.69-8.96-7.49-13.54c-0.31-0.1-0.56-0.25-0.8-0.44
					c-0.59-0.48-0.95-1.17-1-1.97c0-0.14,0-0.27,0-0.41c-4.94-7.39-9.79-12.32-14.89-15.05c-2.73-1.47-5.61-1.79-8.86-1
					c-0.44,0.25-0.9,0.37-1.39,0.4c-7.16,2.38-14.11,9.53-18.75,14.27c-7.36,7.56-13.36,15.19-18.18,23.15
					c2.01-2,4.22-3.73,6.7-5.12l1.57-0.88l1.29,1.62c0.59,0.97,0.33,2.24-0.62,2.88c-14.81,10.15-16.82,33.55-17.07,40.48
					c-0.03,0.44-0.13,0.85-0.31,1.22c0.28,0.84,0.62,1.67,0.98,2.5c1.29-8.45,3.6-16.61,6.9-24.32
					c3.76-8.81,10.07-21.05,21.63-25.93l1.6-0.67l1.65,3.09l-1.44,1c-15.14,9.23-21.25,29.02-23.69,43.17
					c3.04-8.46,7.47-17.1,13.37-26.12c0.62-0.98,1.9-1.29,2.93-0.7c1,0.59,1.36,1.87,0.82,2.91c-6.28,11.74-12.36,24.48-14.83,38.52
					c2.09-7.65,6.03-15.15,9.12-21.04c3.73-7.09,9.71-17.25,18.34-23.44l1.39-0.99l2.34,2.56l-1.11,1.38
					c-6.59,7.41-11.87,14.99-16.1,23.14c-1.21,2.37-2.27,4.75-3.17,7.17c3.14-5.63,6.93-10.7,11.25-15.02
					c0.85-0.86,2.16-0.9,3.04-0.1c0.9,0.8,1.03,2.16,0.26,3.1c-8.91,11.14-14.89,24.23-17.77,38.96c-0.1,0.62-0.41,1.16-0.82,1.57
					c0.05,0.21,0.13,0.41,0.18,0.62c4.94-14.7,11.51-30.63,24.46-40.3c0.41-0.31,0.88-0.45,1.34-0.45c0.64,0,1.29,0.28,1.73,0.82
					c0.8,0.94,0.72,2.33-0.16,3.16c-10.79,10.14-16.56,23.64-21.6,37.96c3.91-0.98,7.96-1.7,12.02-2.14
					c6.21-8.83,15.91-13.01,25.29-17.05C1668.57,1007.25,1678.04,1003.17,1683.55,993.85z"/>
				<path d="M1594.35,1191.42c-0.03-0.62,0.13-1.24,0.46-1.78c0.31-0.49,0.72-0.88,1.24-1.13c6.26-11.28,9.27-23.66,8.73-36
					c-2.65-0.46-5.25-0.8-7.93-0.98c3.3,16.25-0.13,30.33-9.5,38.91c-0.88,0.8-2.16,0.8-3.04,0c-0.85-0.83-0.95-2.14-0.21-3.06
					c7.52-9.3,9.66-20.63,6.7-35.56c-1.72,1.44-3.4,2.94-5.07,4.4c-1.98,1.75-4.04,3.55-6.15,5.28c0.08,0.21,0.13,0.41,0.15,0.64
					c1.65,16.89-6.46,30.83-13.72,41.07l-1.05,1.47l-3.3-1.98l0.95-1.75c7.93-13.06,11.48-24.1,11.28-35.3
					c-2.57,1.65-5.07,2.88-7.65,3.84c-0.93,0.33-1.88,0.64-2.99,0.93c0.21,7.03-1.65,14.29-5.36,21.06l-0.88,1.55l-1.88-0.69
					c-1-0.49-1.44-1.62-1.03-2.63c2.32-5.74,3.4-11.69,3.3-18.16c-2.76,0.36-5.69,0.46-8.83,0.36c-0.23,1.36-0.49,2.63-0.72,3.86
					c-0.77,3.81-1.47,7.42-1.29,11.28l0.08,1.75l-1.9,0.41c-1.06,0.13-2.04-0.54-2.27-1.6c-1.23-5.18-1.13-11.25,0.21-16.15
					c-2.37-0.26-4.86-0.62-7.67-1.13c0.08,2.91-0.21,5.87-0.46,8.75c-0.13,1.37-0.26,2.73-0.33,4.04l-0.11,1.78l-2.03,0.23
					c-1.13-0.03-2.06-0.88-2.11-2.01c-0.08-1.29-0.21-2.65-0.33-4.02c-0.28-3.27-0.62-6.62-0.44-9.89
					c-1.72-0.39-3.45-0.77-5.12-1.13c0.05,0.46,0.1,0.93,0.15,1.39l0.13,0.93c0.23,1.65,0.46,4.12-0.1,6.49l-0.33,1.42l-1.7,0.23
					c0,0-0.03,0-0.05,0c-0.98,0-1.8-0.64-2.06-1.57c-0.31-1.1-0.51-2.21-0.75-3.32c-0.13-0.77-0.31-1.55-0.49-2.32
					c-0.1-0.46-0.23-0.95-0.39-1.42c-0.28-1-0.62-2.11-0.72-3.27c-3.22-0.72-6.44-1.49-9.66-2.29c0.21,3.94-0.18,7.16-1.18,10.25
					c-0.36,1.03-1.44,1.67-2.55,1.49c-1.08-0.21-1.85-1.16-1.8-2.27c0.15-3.53,0.23-7.26-0.59-10.94c-3.37-0.83-6.64-1.6-9.91-2.34
					c-6.15-1.37-12.41-2.27-17.9-2.93c-0.72,4.43-1.78,8.73-2.78,12.87c-1.96,8.06-3.81,15.66-3.5,24.03l0.08,1.75l-3.58,0.46
					l-0.39-1.8c-1.96-10.92-0.28-25.29,4.35-37.98l-6.36-0.72c-1.62-0.18-3.27-0.46-5.1-0.82c-10.63,9.37-12.87,22.61-13.67,34.35
					l-0.1,1.67l-1.93,0.31c-1.08,0.05-1.98-0.7-2.14-1.75c-1.98-12.72,2.57-26.88,11.48-36.28c-2.47-0.8-4.89-1.72-7.21-2.81
					l-2.11,1.31c-4.97,3.01-9.66,5.87-13.83,10.25c-5.36,5.66-8.83,12.8-10.58,21.84c-0.23,1.11-1.21,1.83-2.32,1.72
					c-1.13-0.1-1.98-1.03-2.01-2.14c-0.23-7.78,2.86-15.58,9.42-23.82c4.2-5.23,9.5-9.79,14.68-12.72
					c-2.24-1.36-4.48-2.86-6.72-4.56c-0.36,0.15-0.77,0.26-1.16,0.21c-0.13,0-0.26,0-0.39,0c-19.29,0-30.39,19.91-33.35,26.03
					l-0.75,1.55l-3.37-1.18l0.36-1.8c3.76-13.39,15.97-27.63,32.01-30.16c-2.65-2.29-5.41-4.89-8.34-7.85
					c-15.12,1.8-27.43,8.7-35.64,19.98c-0.69,0.93-1.93,1.18-2.91,0.59c-1-0.59-1.34-1.83-0.83-2.86
					c7.11-14.76,23.51-20.42,34.64-22.58c-2.34-2.47-4.66-4.99-6.98-7.47c-14.63-1.93-24.39,5.38-35.72,13.8l-3.53,2.63
					c-0.93,0.67-2.21,0.56-3.04-0.28c-0.82-0.85-0.93-2.11-0.21-3.04c8.94-11.77,22.89-19.13,36.52-19.54
					c-0.1-0.1-0.21-0.21-0.28-0.31c-0.75-0.77-1.47-1.52-2.19-2.27c-0.28,0.08-0.56,0.08-0.88,0.05
					c-11.79-0.95-27.48,0.46-35.36,12.95l-0.85,1.36l-3.17-1.21l0.36-1.75c3.73-12.85,19.34-17.9,33.71-17.74
					c-2.99-3.06-5.87-6.21-8.5-9.5c-11.69-1.08-21.79,3.3-30.77,13.5l-1.08,1.23l-1.67-0.88c-0.9-0.59-1.21-1.78-0.75-2.76
					c5.43-11.51,18.46-17.17,29.82-17.36c-0.49-0.77-0.93-1.52-1.34-2.24c-3.38-0.67-6.62-1.73-9.74-2.78
					c-3.94-1.31-7.65-2.52-11.69-3.04c-7.44-0.95-13.49,0.39-19.65,4.3c-0.9,0.59-2.06,0.44-2.83-0.33
					c-0.75-0.75-0.85-1.91-0.28-2.78c3.58-5.51,10.56-7.91,21.45-7.34c3.37,0.18,10.53,0.82,17.12,3.17
					c-6.23-5.74-13.39-10.38-23.43-15.22c-6.31,1.06-12.77,2.71-17.28,7.06c-3.11,3.01-3.99,7.96-2.6,14.68
					c2.21,10.71,8.52,20.6,14.09,29.35l0.72,1.08c1.8,2.86,3.6,5.66,5.25,8.47c9.37,15.79,15.73,32.16,20.73,46.1
					c5.15,14.44,13.52,32.06,32.57,39.96c10.82,4.48,22.25,1.78,33.35-0.85c2.32-0.57,4.61-1.11,6.87-1.57
					c5.15-1.08,10.2-1.62,15.14-1.62c8.27,0,16.25,1.49,23.82,4.53c6.62,2.63,12.77,6.31,18.69,9.86c4.22,2.52,8.58,5.12,13.01,7.31
					c10.53,5.15,21.66,6.34,33.97,3.58c0.7-0.57,1.57-0.8,2.42-0.59c1.67-0.44,3.37-0.93,5.07-1.52
					c9.53-3.22,18.64-8.37,26.47-14.89c0.05-0.41,0.21-0.8,0.44-1.16c0.51-0.77,1.21-1.11,2.24-1.16
					C1585.7,1203.42,1590.46,1197.71,1594.35,1191.42z"/>
				<path d="M1604.52,1136.32c3.3-1.32,6.75-2.4,10.48-3.27c0.95-0.23,1.91-0.46,2.86-0.72c6.82-8.65,11.25-18.05,13.78-29.25
					c-2.4,3.17-5.2,6.08-8.55,8.47c-8.19,5.82-18.44,4.17-26.45,2.09c-2.42-0.64-4.81-1.34-7.21-2.01
					c-8.99-2.55-17.38-4.94-26.7-4.61c-9.89,0.36-18.49,5.82-26.83,11.1c-11.74,7.44-23.87,15.12-39.76,9.19
					c-19.54-7.31-27.17-26.73-34.53-45.5c-2.91-7.42-5.66-14.45-9.09-20.53c-0.13-0.26-0.23-0.51-0.28-0.77
					c-3.58-4.38-6.82-9.27-9.68-14.58c-2.5-4.64-4.69-9.79-6.93-16.22c-1.18-3.45-2.11-6.93-2.81-9.58
					c-0.39-1.52-0.54-3.01-0.69-4.48c-0.13-1.11-0.23-2.19-0.44-3.22c-1.67,0.9-3.4,1.8-5.15,2.7c-6.31,3.32-12.98,6.8-19.34,10.71
					l1.6,1.78l-2.68-1.11c-10.46,6.52-20.09,14.22-26.19,24.31c-4.59,7.59-5.13,16.45-1.65,25.52c-1.08-9.6,0.8-19.42,5.53-26.11
					c0.7-0.98,1.98-1.26,3.01-0.67c1.03,0.59,1.42,1.88,0.9,2.96c-3.35,7.03-4.38,14.91-3.06,23.43c0.46,3.04,1.31,5.79,2.44,8.37
					c-1.49-11.62,0.26-24.08,5.05-33.71l0.75-1.55l3.37,1.18l-0.39,1.8c-4.3,15.66-6.62,37.26,5.95,53.13
					c-5.97-16.87-6.57-33.45-1.7-48.54c0.36-1.11,1.55-1.73,2.65-1.44c1.1,0.31,1.8,1.44,1.57,2.57
					c-4.04,18.46-1.7,36.13,7.39,55.01c-3.19-12.31-3.04-25.49,0.64-37.93c0.36-1.21,1.52-1.93,2.73-1.62
					c1.24,0.28,2.01,1.47,1.8,2.7c-3.63,22.33-0.7,39.32,9.53,54.98c-3.4-10.66-3.99-22.22-1.52-32.76
					c0.26-1.11,1.31-1.83,2.45-1.62l1.7,0.28l0.1,1.98c-1.34,15.58,1.16,28.92,7.6,40.76c2.6,1.75,5.02,3.22,7.34,4.43l0.36,0.15
					c0.05-0.03,0.13-0.05,0.18-0.05c0.95-0.18,1.91,0.13,2.52,0.85c0.16,0.21,0.28,0.41,0.39,0.64c5.46,2.29,11.69,3.73,18.49,4.3
					c9.22,0.8,18.23,2.16,27.55,4.17c5.05,1.11,10.09,2.29,15.11,3.5l0.33,0.08c-0.88-6.08,0.31-12.82,1.85-17.48
					c0.39-1.16,1.55-1.78,2.71-1.47c1.16,0.31,1.83,1.44,1.62,2.63c-0.88,4.33-0.7,8.45-0.51,12.85c0.08,1.6,0.15,3.22,0.15,4.87
					c1.8,0.44,3.61,0.85,5.38,1.26c0.1-1.7,0.31-3.37,0.49-5.02c0.13-0.98,0.26-1.98,0.33-2.96c0.28-3.01,0.62-6.23,1.21-9.45
					c0.21-1.24,1.36-2.01,2.57-1.88c1.29,0.13,2.19,1.18,2.14,2.45c-0.1,1.85-0.1,3.84-0.1,5.87c0.03,4.1,0.03,8.32-0.75,12.26
					c4.99,1.03,9.35,1.78,13.47,2.34c5.05-8.86,5.85-17.9,5.9-26.39c0-1.18,0.9-2.14,2.09-2.22c1.24-0.03,2.24,0.82,2.4,2.01
					c1.34,9.96-0.03,19.54-3.86,27.35c1.29,0.1,2.57,0.21,3.86,0.28c0.62,0.03,1.23,0.03,1.83,0.03
					c5.92-10.92,9.14-18.95,9.24-29.92c0-1.29,0.98-2.29,2.24-2.37c1.16-0.16,2.42,0.88,2.58,2.16c1.18,10.22-1.18,21.19-6.15,29.25
					c3.5-0.83,6.9-2.24,10.38-4.33c3.78-11.12,7.96-22.92,12.69-33.99c0.49-1.13,1.75-1.67,2.93-1.24c1.24,0.41,1.91,1.67,1.57,2.88
					c-0.51,1.85-1.03,3.76-1.55,5.69c-1.72,6.49-3.5,13.16-5.9,19.47c1.47-1.24,2.96-2.5,4.45-3.79l1.13-0.98
					c1.34-1.13,2.68-2.19,4.04-3.19c3.86-4.76,7.6-9.27,11.36-13.75c3.32-3.97,6.62-7.96,9.91-11.95l1.1-1.34l2.91,1.96l-1.44,2.68
					C1610.7,1126.71,1607.79,1131.65,1604.52,1136.32z"/>
				<path d="M1648.99,1110.77c7.88-14.01,10.3-31.8,12.44-47.56l0.16-1.08c-3.35,0.08-6.46,0.72-10.04,2.81
					c-5.59,3.25-7.41,9.35-9.19,15.24c-1.55,5.07-3.71,11.31-7.03,17.2c0.88,0.31,1.52,1.11,1.52,2.09
					c0.16,11.79-4.35,22.17-9.14,29.82c1-0.39,1.98-0.77,2.86-1.18c12.87-13.96,16.17-31.72,18.44-48.72
					c0.15-1.13,1.21-1.88,2.29-1.93c1.13,0.08,2.03,0.98,2.06,2.11c0.36,11.18-1.44,22.12-5.1,31.75
					C1648.48,1111.08,1648.74,1110.9,1648.99,1110.77z"/>
				<path d="M1376.52,942.24v-0.01c-2.32-0.63-4.87-1.09-7.36-1.09c-5.28,0-10.43,2.05-13.01,8.79c-3.43,8.96-0.49,20.14,1.57,26.02
					c5.23,14.97,18.7,30.18,34.48,39.75c-1.11-1.03-2.19-2.03-3.27-3.01c-10.25-9.42-20.86-19.15-23.92-34.35
					c-1.16-5.65,0.31-11.19,4.3-16.48c0.98-1.31,1.98-2.57,2.96-3.81c3.53-4.44,6.85-8.63,8.81-14.09
					c2.37-6.66,2.24-13.52,2.09-20.77c-0.13-5.65-0.23-11.5,0.93-17.23c1.93-9.33,9.32-14.91,21.55-16.34
					c-3.79-1.97-7.55-3.71-11.74-4.7c-4.4-1.04-8.75-0.39-12.26,1.83c-3.5,2.23-5.92,5.9-6.85,10.31
					c-1.6,7.78,0.46,15.58,2.63,23.85c1.57,5.91,3.17,12.01,3.3,18.09c0.03,1.03-0.44,2-1.26,2.64
					C1378.63,942.29,1377.53,942.51,1376.52,942.24z"/>
				<path d="M1678.17,1008.41c-5.2,3.53-11.23,6.23-17.18,8.91c-6.95,3.11-14.08,6.33-19.65,10.81c0.67-0.03,1.37-0.03,2.04-0.03
					c2.45,0,4.94,0.08,7.47,0.26c8.88-2.99,15.71-9.27,22.92-15.94C1675.21,1011.09,1676.68,1009.75,1678.17,1008.41z"/>
				<path d="M1766.75,950.03c0.64-3.97,1.62-8.08,2.55-12.06c2.7-11.41,5.51-23.22,0.98-33.93c-2.86-6.75-9.42-11.29-18.03-12.48
					c-7.54-1-15.22,0.68-20.99,4.35c-1.98,1.26-3.73,2.74-5.18,4.45v0.06c0,0.4-0.03,0.8-0.08,1.2
					c-1.08,11.78-6.77,23.62-15.22,31.64c-2.93,2.82-6.31,5.17-9.58,7.44c-5.92,4.12-11.54,8.03-14.52,14.41
					c4.89,10.48,6.93,19.92,6.26,28.83c-0.62,8.29-3.73,14.32-8.27,19.03c0.57-0.4,1.11-0.8,1.65-1.2l1.47-1.04l1.44,1.51
					c0.72,0.93,0.57,2.23-0.31,2.95c-3.66,3.08-7.13,6.64-10.48,10.07c-5.05,5.15-10.22,10.46-16.35,14.47
					c3.63,0.62,7.19,1.42,10.64,2.34c3.91,0.7,7.72,2.42,10.68,4.89c3.58-6.9,9.35-13.34,15.09-19.31
					c7.62-7.96,15.76-12.83,24.18-14.49l1.7-0.35l0.72,1.81c0.28,1.05-0.26,2.14-1.29,2.51c-7.83,2.86-14.96,7.93-22.46,15.91
					c-2.6,2.78-4.84,5.9-6.95,9.01c12.05-9.27,29.2-14.01,48.95-13.36c0.46,0,0.93-0.03,1.39,0c10.76,0.49,21.48,2.91,31.11,7.03
					c8.16-15.43,5.74-34.18-6.36-48.1l-1.18-1.34l1.31-1.56c0.8-0.76,2.06-0.77,2.88-0.01c13.18,12.5,19.93,36.18,8.65,53.61
					c0.59,0.33,1.16,0.67,1.72,1c0.98-3.22,2.16-6.39,3.3-9.42c2.63-7,5.07-13.6,5.66-21.03c0.77-9.96-4.38-19.93-13.44-26.01
					c-1-0.68-2.16-1.26-3.4-1.87c-2.47-1.24-5.02-2.5-6.85-4.85c-3.37-4.27-2.34-10.49-1.6-15.02L1766.75,950.03z"/>
				<path d="M1480.58,1074.75c0.1,0.03,0.21,0.08,0.31,0.13c-0.08-0.18-0.16-0.39-0.21-0.57
					C1480.66,1074.44,1480.63,1074.59,1480.58,1074.75z"/>
				<path d="M1479.96,1071.53c-0.03-0.13-0.03-0.23-0.05-0.36l-0.05,0.03C1479.89,1071.29,1479.94,1071.42,1479.96,1071.53z"/>
				<path d="M1478.42,1066.58c0.41-0.13,0.83-0.15,1.18-0.08c0-0.05,0-0.1,0-0.16c-0.59-0.46-1.18-0.93-1.77-1.39
					c0.13,0.54,0.31,1.11,0.46,1.67C1478.34,1066.61,1478.39,1066.61,1478.42,1066.58z"/>
				<path d="M1503.86,1037.23c-0.31,1.21-1.34,1.96-2.63,1.86c-1.24-0.16-2.16-1.13-2.24-2.37c-0.05-1.47-0.08-3.01-0.05-4.79
					c-0.41,0.08-0.82,0.18-1.23,0.31c1.08,5.74,1.8,10.94,2.24,15.81c0.1,1.31-0.75,2.45-2.06,2.7c-1.37,0.28-2.68-0.49-3.06-1.8
					c-1.44-4.76-2.24-9.79-2.91-14.68c-1.21,0.54-2.39,1.13-3.55,1.83c1.7,3.32,2.96,6.15,3.97,8.78c0.44,1.18-0.05,2.47-1.16,3.06
					c-0.69,0.36-1.47,0.41-2.16,0.15c0.05,0.72,0.15,1.42,0.23,2.11c0.21,1.44-0.7,2.78-2.11,3.12c-1.34,0.31-2.68-0.46-3.14-1.83
					c-1.03-3.27-1.13-6.98-0.28-11.28h-0.03c-0.1-0.21-0.18-0.39-0.28-0.57c-0.13,0.1-0.28,0.23-0.41,0.36
					c-0.83,0.77-1.57,1.57-2.27,2.45c1.06,0.28,1.8,1.21,1.83,2.39c0.08,2.16,0.26,4.33,0.44,6.49v0.28
					c0.69,0.85,1.39,1.73,2.06,2.58c0.33,0.03,0.7,0.1,1,0.28c0.95,0.49,1.39,1.55,1.11,2.58c0.59,0.77,1.08,1.47,1.57,2.16
					c0.72,1.11,0.49,2.55-0.56,3.38c-0.8,0.62-1.78,0.72-2.63,0.36c-0.05,0.31-0.11,0.64-0.13,0.98c0.21,0.21,0.41,0.44,0.62,0.64
					c0.7,0.75,0.88,1.83,0.54,2.76c0.72-0.26,1.57-0.18,2.27,0.28c1.16,0.75,1.49,2.21,0.8,3.4c-0.75,1.26-1.44,2.6-2.11,3.91
					l-0.33,0.67c0.1,0.28,0.15,0.57,0.26,0.88c0.1,0.44,0.13,0.88,0.03,1.29c3.94,1.52,8.11,2.76,12.41,3.71
					c0.31-1.13,1.16-1.91,2.5-1.85c3.35,0.13,6.9,0.28,10.48,0.31c-0.21-0.21-0.41-0.46-0.54-0.75c-0.57-1.06-0.36-2.29,0.46-3.09
					c-0.03-1.93,0.15-3.89,0.31-5.64l0.05-0.88c0.1-1.26,1.11-2.22,2.34-2.24c1-2.63,2.7-4.92,5.02-6.8
					c0.03-0.54,0.05-1.08,0.08-1.65c0.05-1.21,1-2.19,2.24-2.29c0.83-0.1,1.55,0.26,2.01,0.85l0.21-0.23l-0.08,0.41
					c0.05,0.05,0.08,0.1,0.1,0.15c0.28-0.1,0.57-0.21,0.85-0.31c-0.36-0.72-0.31-1.55,0.13-2.19c-0.08-0.41-0.03-0.85,0.1-1.26
					c1.72-5.23,4.33-10.79,8.16-17.44c-0.85-0.51-1.75-1-2.76-1.49c-1.75,4.38-3.71,8.86-6.21,12.9c-0.77,1.19-2.29,1.62-3.58,1
					c-1.26-0.59-1.85-1.96-1.42-3.27c1.55-4.64,3.53-9.19,5.25-12.95c-1.13-0.33-2.32-0.64-3.53-0.93
					c-1.67,3.92-3.5,8.06-5.56,12.08l-0.03,0.31c-0.16,1.62-1.8,2.73-3.25,2.34l-0.05,0.08v-0.08c-1.03-0.28-1.83-1.18-1.93-2.32
					l-0.02-1.03c-0.1-1.44-0.1-2.99,0-4.61c-0.59-0.52-0.9-1.21-0.88-2.01c0-1.88,0.18-3.86,0.51-6c-1.85-0.03-3.97,0.1-6,0.33
					C1504.66,1033.31,1504.32,1035.32,1503.86,1037.23z"/>
				<path d="M1477.26,1053.5c-0.05-0.05-0.08-0.08-0.13-0.13c-0.23,0.54-0.46,1.11-0.67,1.7c0,0.26,0,0.49,0,0.72
					c0.41,0.36,0.85,0.72,1.24,1.06C1477.49,1055.82,1477.34,1054.71,1477.26,1053.5z"/>
				<path d="M1575.29,1220.93c-6.8,4.74-14.44,8.63-22.35,11.3c12.64,10.38,21.89,23.1,25.03,34.56c0.28,1.08-0.28,2.19-1.29,2.57
					l-1.57,0.62l-1.11-1.6c-4.32-8.42-8.55-14.62-13.7-20.19c-2.65-2.83-5.64-5.46-8.55-8.01c-2.11-1.85-4.27-3.73-6.31-5.74
					c-2.27,0.54-4.45,1-6.59,1.31c5.28,11.77,12.49,21.61,21.97,30c0.85,0.75,0.95,2.06,0.23,2.96c-0.72,0.9-2.01,1.08-2.93,0.41
					c-11.59-8.47-20.45-19.78-25.68-32.81c-3.27,0.1-6.64-0.21-10.14-0.85c0.31,1,0.62,2.03,0.93,3.06
					c2.21,7.49,4.33,14.57,8.22,21.09c0.59,1,0.33,2.24-0.65,2.88c-0.98,0.67-2.27,0.44-2.96-0.51
					c-5.84-7.93-8.86-17.31-11.77-26.35l-0.59-1.88c-4.1-1.29-8.27-3.06-12.67-5.36c0.13,1.13,0.28,2.24,0.46,3.35
					c1.39,10.07,2.83,20.47,2.83,30.64v1.6l-1.83,0.52c-1.08,0.13-2.06-0.49-2.37-1.5c-2.75-8.91-3.76-18.57-4.74-27.89
					c-0.36-3.55-0.72-7.06-1.19-10.51c-1.13-0.67-2.27-1.31-3.4-1.98c-2.47-1.44-4.99-2.96-7.54-4.35
					c-2.37,15.35-3.27,28.89-2.81,42.39c0.02,1.16-0.77,2.11-1.93,2.29c-1.11,0.18-2.21-0.54-2.52-1.65
					c-3.94-14.55-1.24-30.77,1.16-45.09l0.18-1.03c-3.84-1.85-7.29-3.19-10.69-4.15c-0.95,3.76-2.22,7.44-3.43,11.05
					c-1.26,3.73-2.6,7.62-3.53,11.51c-1.85,7.65-2.44,15.71-1.83,25.36l0.13,1.7l-3.45,0.67l-0.62-1.7
					c-4.74-16.17,0.57-36.54,6.87-49.83c-4.25-0.62-8.75-0.64-13.85-0.13c-11.1,24.02-10.2,51.04,2.4,70.61l0.93,1.47l-1.44,1.31
					c-0.88,0.64-2.11,0.51-2.81-0.31c-17.74-21.37-15.19-50.57-6.54-71.97c-3.11,0.59-6.26,1.29-9.14,1.93
					c-6.34,23.64-8.32,43.31-6.28,61.85l0.21,1.72l-1.91,0.57c-1.11,0.23-2.16-0.44-2.47-1.52c-4.25-16.1-3.38-35.2,2.65-58.22
					c-7.26,11.46-11.25,25.9-12.57,45.17c-0.7,10.25,1.08,24.2,13.47,32.34c4.59,3.01,10.48,4.92,18.49,6
					c7.88,1.03,14.91-2.01,22.33-5.25l2.7-1.16c9.53-4.07,19.26-6.1,29.05-6.1c4.69,0,9.4,0.46,14.11,1.42
					c6.41,1.26,13,3.09,19.39,4.87c16.74,4.64,34.02,9.4,50.83,5.43c10.79-2.55,17.38-10.97,18.59-23.72
					c1.67-17.43-9.24-34.51-17.61-45.81C1580.65,1227.04,1578.05,1223.87,1575.29,1220.93z"/>
				<path d="M1552.74,1046.11c0,0,0,0.02,0.03,0.02c0.98-0.69,2.01-1.39,3.04-2.06c-0.46-1.39-0.98-2.65-1.52-3.81
					c-0.95,1.05-1.83,2.06-2.65,3.06c-0.05,0.08-0.1,0.13-0.18,0.18c0.02,0.05,0.02,0.08,0.05,0.1c0.26,0.54,0.59,1.31,0.9,2.16
					C1552.51,1045.88,1552.61,1046.01,1552.74,1046.11z"/>
				<path d="M1415.1,1218.56c-8.55,9.01-16.2,16.66-24.52,23.74c-6.95,5.92-17.64,13.98-30.31,15.58l-1.75,0.23l-0.56-1.93
					c-0.18-1.1,0.51-2.19,1.6-2.44c17.59-4.35,30.72-18.28,43.44-31.72c2.09-2.22,4.15-4.4,6.23-6.54c-2.58-0.18-5.1-0.57-7.57-1.16
					c-4.71,3.91-9.63,7.65-14.39,11.25c-6.72,5.07-13.65,10.33-19.98,16.07l-1.31,1.18l-1.57-1.21c-0.82-0.77-0.9-2.01-0.21-2.88
					c6.64-8.16,15.06-14.62,23.18-20.86c2.45-1.88,4.94-3.81,7.39-5.77c-2.01-0.8-3.99-1.75-5.95-2.86
					c-9.74,6.51-19.24,14.24-30.62,24.93l-1.26,1.18l-1.6-1.16c-0.83-0.75-0.93-2.04-0.23-2.91c8.14-10.02,17.9-18.82,28.35-25.6
					c-1.67-1.26-3.27-2.63-4.84-4.15c-11.74,7.36-21.04,16.35-29.2,28.15l-0.98,1.42l-1.85-0.77c-0.98-0.57-1.34-1.75-0.82-2.78
					c6.41-12.98,17.02-24.23,28.71-30.54c-0.36-0.44-0.75-0.93-1.13-1.42c-14.47,9.06-26.96,19.72-40.15,31l-2.27,1.93
					c-0.88,0.75-2.19,0.7-3.04-0.1c-0.82-0.77-0.93-1.98-0.26-2.88c10.66-13.9,26.5-24.95,42.23-34.81
					c-1.85-2.86-3.58-6.03-5.25-9.55c-15.3,7.93-29.15,18.72-43.52,33.92l-1.21,1.26l-1.7-1.08c-0.88-0.7-1.06-1.93-0.44-2.86
					c9.22-13.88,24.18-26.21,44.42-36.64c-0.46-1.13-0.93-2.29-1.36-3.45c-1-2.6-2.01-5.2-2.96-7.8l-1.42-3.71
					c-10.87,4.53-21.19,10.25-31.55,17.43c-7.08,4.89-13.72,10.58-20.16,16.09c-1.96,1.67-3.97,3.32-5.95,5
					c-1.72,1.44-3.42,2.93-5.17,4.35l-1.32,1.06l-1.52-1.21c-0.77-0.77-0.82-1.98-0.15-2.83c0.8-0.98,1.67-1.91,2.5-2.86
					c15.68-18.1,38.11-33.86,61.11-42.77c-2.09-5.41-4.58-11.54-7.57-17.72c-10.69,1.5-20.09,5.59-30.03,9.91
					c-5,2.16-10.15,4.4-15.45,6.26l-1.55,0.54l-1.67-3.01l1.44-1.16c14.01-9.37,29.67-15.76,44.39-18.1
					c-0.39-0.77-0.8-1.52-1.21-2.27c-2.34-4.2-5-8.42-7.52-12.51l-0.39-0.59c-13.67,2.88-26.91,7.98-39.4,15.17
					c-7.52,4.32-14.37,9.84-20.99,15.14c-5.25,4.25-10.68,8.6-16.45,12.41l-1.34,0.88l-1.34-1.18c-0.69-0.77-0.75-1.93-0.1-2.76
					c9.91-12.8,25.01-22.71,37.03-29.92c11.77-7.06,24.9-12.26,39.07-15.43c-1.96-3.24-4.07-6.87-6.03-10.74
					c-10.2,3.19-18.8,6.15-27.22,9.97c-9.24,4.2-16.82,9.78-25.03,16.12c-0.82,0.64-2.03,0.57-2.83-0.18
					c-0.8-0.8-0.9-1.98-0.26-2.86c11.77-16.09,34.25-23.12,52.66-28.71c-0.26-0.59-0.51-1.21-0.77-1.8
					c-1.42-3.55-3.01-8.03-3.63-12.69l-1.36,0.59c-11.31,4.76-23.02,9.74-33.84,15.99c-12.62,7.31-21.94,16.76-29.44,25.49
					c-0.88,1-1.72,2.01-2.52,2.96l-1.03,1.26l-1.7-0.8c-0.95-0.59-1.29-1.78-0.85-2.76c1.57-3.61,3.68-6.9,6.1-9.97
					c7.11-9.04,17.02-15.83,24.64-20.55c12.77-7.88,26.73-13.78,39.99-18.95c0.28-2.01,0.85-3.91,1.7-5.61
					c1.47-2.93,3.48-5.18,5.79-6.9c-3.71,0.39-7.42,0.67-11.05,0.95c-3.94,0.31-7.85,0.62-11.74,1.03
					c-15.73,1.62-29.82,5.56-44.27,12.44c-1.05,0.51-2.29,0.1-2.88-0.9c-0.56-1-0.26-2.27,0.72-2.91
					c19.29-13.11,43.47-15.22,66.85-17.28c2.24-0.18,4.46-0.39,6.67-0.59c-25.73-8.94-54.82-15.76-76.43,0.36
					c-0.15,0.1-0.31,0.18-0.44,0.31l-1.39,1.03l-2.5-2.55l1.16-1.52c0.98-1.08,2.04-2.06,3.17-3.01c7.83-6.49,19.11-9.66,34.3-9.66
					c0.16,0,0.31,0,0.46,0c7.47,0.03,15.19,0.85,22.43,2.34c-1.29-1.18-2.47-2.42-3.58-3.71c-0.21-0.23-0.39-0.49-0.59-0.72
					c-3.43-0.39-6.93-0.9-10.51-1.44c-14.81-2.21-30.13-4.48-42.51,2.73c-0.31,0.18-0.62,0.31-0.93,0.51
					c-10.02,6.28-13.67,18.31-16.1,30.36c-1.13,5.66-2.65,12.18-6.28,17.85c-2.71,4.27-6.62,7.52-10.43,10.63l-1.75,1.44
					c-11.97,9.99-15.04,19.67-9.14,28.76c0.75,1.13,1.52,2.24,2.27,3.35c2.03,3.01,4.17,6.1,5.79,9.63c2.06,4.48,3.3,9.22,4.48,13.8
					l0.75,2.86c1.52,5.72,3.3,11.12,8.42,14.34c4.3,2.68,10.04,3.14,15.61,3.24c4.43,0.08,8.94-0.21,13.42-0.57
					c2.57-0.23,5.18-0.46,7.7-0.72c2.55-0.26,5.1-0.52,7.62-0.75c3.19-2.01,6.47-3.81,9.71-5.33l0.83-0.39
					c3.22-1.52,7.16-3.38,10.92-3.38c0.39,0,0.75,0,1.13,0.05c1.75,0.18,3.04,1.57,3.04,3.27c0,1.72-1.29,3.09-3.04,3.27
					c-7.44,0.83-16.22,6.59-23.85,12.16c-1.34,0.98-2.73,2.11-4.12,3.32c-5.92,5.18-11.64,12.39-12.1,21.2
					c-0.08,1.75,0.21,3.35,0.64,4.86c1.83,6.1,7.47,10.51,13.03,14.76c0.93,0.72,1.85,1.42,2.73,2.14
					c5.1,4.02,8.91,9.04,12.59,13.88c3.22,4.2,6.54,8.55,10.61,12.1c18.85,16.43,50.24,17.61,71.43,11.77
					c10.69-2.93,19.67-9.24,28.28-19.93c2.83-3.48,5.43-7.29,7.93-11c2.52-3.68,5.13-7.49,7.98-11.05
					C1413.32,1222.07,1414.2,1220.29,1415.1,1218.56z"/>
				<path d="M1295.56,976.65c1.5,3.63,3.07,7.38,4.28,11.18c1.98,6.15,2.86,12.55,3.71,18.75c0.39,2.8,0.77,5.58,1.26,8.33
					c1.65,9.4,5.82,16.74,13.13,23.07c0.8,0.72,1.65,1.39,2.55,2.09c-11.36-15.12-17.67-33.05-17.15-49.8l0.05-1.79l2.04-0.27
					c0.98,0.09,2.09,0.85,2.16,1.98c1.37,21.65,12.75,44.29,29.72,59.07c0.1,0.1,0.21,0.21,0.31,0.31c1.49,0.67,3.01,1.31,4.53,1.98
					l0.8,0.36l0.31-0.05c0.08,0,0.16,0,0.23,0c-6.13-7.8-12.08-16.94-17.77-27.32c-9.12-16.64-14.24-31.29-15.68-44.77l-0.21-1.74
					l3.5-0.79l0.72,1.74c3.79,12.9,8.76,28.05,16.82,42.64c3.58,6.41,7.54,12.34,11.79,18.13c-1.96-4.02-3.6-7.91-5.02-11.35
					c-6.39-15.73-8.89-32.86-7.03-48.23c0.13-1.16,1.1-2.05,2.32-1.92l1.78,0.12l0.21,2.06c-0.36,15.15,2.24,30,7.73,44.16
					c2.58,6.65,6.03,13.42,10.22,20.14c0.77,1.21,1.57,2.39,2.42,3.55c-2.73-7.73-4.35-15.01-5.33-20.58
					c-3.11-17.74-2.55-36.23,1.6-50.87c-0.41-1.16-0.83-2.34-1.16-3.54c-1.88-6.75-4.15-19.65,1.98-30.24
					c3.99-6.85,11.51-9.72,21.37-8.18c-0.54-4.26-1.62-8.59-2.76-13.13c-2.78-10.96-5.61-22.28-0.26-33.01
					c3.55-7.13,9.71-10.83,17.9-10.83c0,0,0.05,0,0.08,0c-1.31-3.09-2.65-6.18-3.97-9.26l-2.76-6.41c-0.49-1.12,0-2.42,1.08-2.95
					c1.05-0.53,2.32-0.14,2.91,0.89c3.32,5.76,6.72,11.95,9.19,18.42c2.68,0.55,5.43,1.38,8.29,2.51c-0.85-2.03-1.52-4.09-2.11-5.92
					l-0.36-1.13c-1.83-5.52-3.27-11.28-1.62-15.93c0.33-0.93,1.26-1.5,2.21-1.44l1.42,0.1l0.51,1.6c0.26,1.35,0.51,2.69,0.75,4.02
					c0.62,3.41,1.18,6.64,2.29,9.91c0.83,2.43,2.04,4.66,3.32,7.02c1.11,2.03,2.24,4.15,3.09,6.4c1.42,0.81,2.76,1.63,4.02,2.47
					c0.83,0.08,1.62,0.1,2.47,0.08c-0.57-4.25-1.34-8.51-2.06-12.67c-1.03-5.68-2.09-11.55-2.63-17.45
					c-0.1-1.22,0.75-2.28,1.98-2.47c1.26-0.18,2.39,0.59,2.65,1.8c0.54,2.5,1.13,5.02,1.7,7.55c1.7,7.27,3.43,14.77,4.35,22.32
					c2.27-0.62,4.61-1.56,7.01-2.81c-0.72-2.83-1-5.78-1.26-8.65c-0.1-1.17-0.21-2.33-0.33-3.46c-0.23-1.81-0.46-3.64-0.7-5.46
					c-0.46-3.43-0.93-6.97-1.23-10.48c-0.08-1.14,0.69-2.15,1.83-2.35c1.16-0.21,2.27,0.49,2.58,1.6c1.9,6.85,4.32,16.57,4.71,25.36
					c1.42-0.98,2.88-2.07,4.38-3.28c0-0.01,0-0.02-0.03-0.02c-2.11-7.84-3.86-19.2-0.08-28.84c0.44-1.09,1.6-1.66,2.73-1.34
					c1.08,0.32,1.75,1.43,1.52,2.58c-1.52,7.35-1.26,15.19,0.77,23.37c2.11-1.93,4.12-3.86,5.82-5.54c0-0.02-0.03-0.05-0.03-0.09
					c-2.76-8.9-3.68-18.31-4.22-26.36l-0.1-1.79l1.98-0.42c1.13-0.19,2.14,0.64,2.32,1.75c1.11,7.62,3.01,15.17,4.86,22.03
					c1.62-1.69,3.3-3.54,5.15-5.65c-0.08-0.18-0.13-0.37-0.15-0.58c-0.85-5.87-1.55-12.75-0.16-19.28c0.23-1.16,1.29-1.93,2.52-1.8
					c1.24,0.16,2.11,1.17,2.06,2.38c-0.16,4.47,0.28,8.78,0.88,13.22l0.64-0.78c6.15-7.31,12.51-14.87,19.91-21.07
					c13.49-11.28,35.97-15.74,55.78-1.05c-1.16-3.44-2.29-6.95-3.14-10.54c-0.26-1.12,0.39-2.25,1.5-2.64
					c1.08-0.39,2.21,0.1,2.7,1.14l0.36,0.79c2.96,6.44,6,13.08,7.93,20c2.29,2.76,4.3,5.76,5.97,8.9c-0.1-2.02-0.23-4.06-0.46-6.04
					c-0.31-2.82-0.85-5.73-1.37-8.54c-0.72-4.04-1.49-8.21-1.72-12.37l-0.08-1.57l1.73-0.62c1.03-0.25,2.09,0.3,2.52,1.27
					c2.34,5.68,3.32,11.96,4.25,18.05l0.8,4.99c0.88,5.27,1.85,11.16,1.03,16.55c3.94-1.26,7.98-1.93,12.13-2.02
					c-0.21-2.55,0.08-5.14,0.36-7.65c0.1-0.86,0.18-1.71,0.26-2.54c0.39-4.4,0.83-9.12,1.7-13.8c0.21-1.18,1.31-1.97,2.52-1.84
					s2.11,1.15,2.09,2.36c-0.08,2.79-0.26,5.59-0.44,8.38c-0.1,1.73-0.21,3.44-0.28,5.16c-0.08,1.25-0.08,2.55-0.05,3.84
					c0,2.09,0.03,4.24-0.23,6.35c4.22,0.49,8.34,1.58,12.23,3.28c15.66,6.82,30.1,20.16,40.35,37.07
					c1.18-7.18,3.91-13.97,7.98-19.87c0.64-0.94,1.93-1.22,2.91-0.62c0.98,0.59,1.31,1.85,0.8,2.87
					c-4.53,8.63-6.59,17.36-6.41,27.45c1.16,2.47,2.19,4.94,3.11,7.39c2.93-0.4,5.82-0.18,8.6,0.64c3.27,0.97,6.33,2.74,9.35,5.4
					c1.47-9.59,8.11-18.39,13.98-25.21c0.8-0.9,2.14-1.02,3.09-0.27c0.95,0.75,1.16,2.09,0.46,3.04c-2.34,3.26-5.33,7.6-7.8,12.34
					c-2.09,3.96-2.99,8.02-3.97,12.31l-0.67,2.87c0,0.08-0.02,0.17-0.05,0.23c0.64,0.81,1.29,1.65,1.93,2.52
					c2.76-7.75,8.86-14.81,14.04-18.53c0.95-0.68,2.24-0.51,3.01,0.4c0.77,0.91,0.72,2.24-0.13,3.08
					c-3.76,3.68-6.67,7.58-8.91,11.94c-1.42,2.72-2.14,5.5-2.88,8.43c-0.16,0.6-0.31,1.2-0.46,1.8c0.95,1.56,1.85,3.1,2.7,4.58
					c0.28,0.47,0.57,0.95,0.83,1.42c2.27-8.5,6.03-16.84,11.05-24.39c0.67-0.99,1.96-1.29,2.96-0.71c1.03,0.58,1.44,1.84,0.93,2.91
					c-5.2,10.84-8.53,20.37-10.4,29.92c0.05,0.13,0.13,0.24,0.21,0.36c3.65-5.99,9.27-10.13,14.7-14.16
					c2.68-1.98,5.43-4.03,7.91-6.26c12.46-11.23,14.94-28.4,11.87-42.4c-0.44-2.02-0.98-3.97-1.62-5.82
					c-1.44-4.08-3.3-8.02-5.33-11.82c-7.49-14.04-18.05-25.79-24.54-32.28c-8.39-8.37-18.92-16.49-31.31-24.26
					c-0.28-0.18-0.56-0.36-0.85-0.54c-0.28-0.17-0.57-0.35-0.85-0.53c-0.44-0.26-0.85-0.53-1.26-0.79
					c-0.28-0.18-0.59-0.35-0.88-0.51c-0.28-0.18-0.59-0.35-0.88-0.52c-1.47-0.88-2.93-1.75-4.45-2.63
					c-5.41-3.08-14.11-5.03-18.7-2.83c-0.93,0.45-1.91,1.08-2.93,1.72c-3.53,2.24-7.91,5.05-12.62,2.34
					c-2.4-1.38-3.92-3.68-5.38-5.91c-1.5-2.24-2.88-4.36-4.87-4.88c-5.82-1.49-12.08-0.46-18.15,0.53c-3.01,0.5-6.13,1.02-9.19,1.21
					c-7.47,0.5-14.65-1.45-21.63-3.36l-2.01-0.54c-10.28-2.76-18.85-2.99-27.84-0.73c-11.28,2.83-21.14,9.64-30.72,16.25
					c-1.8,1.25-3.6,2.5-5.43,3.72c-8.5,5.7-16.56,9.81-24.62,12.54c-10.07,3.4-21.11,3.91-30.9,4.36c-2.06,0.09-4.17,0.17-6.31,0.25
					c-20.19,0.73-43.08,1.57-55.49,19.17l-1.13,1.61c-4.56,6.51-8.88,12.68-15.91,17.64c-5.69,4.03-12.28,6.5-19.05,8.88l-1.24,0.41
					c-4.38,1.51-8.94,3.07-10.02,7.21c-1.18,4.44,0.77,8.74,2.81,13.3c1.7,3.73,3.45,7.61,3.45,11.73c0,1.31-0.62,2.43-1.72,3.08
					c-1.16,0.66-2.65,0.67-3.79,0c-1.11-0.64-1.75-1.76-1.75-3.08c0-2.61-1-5.41-2.42-8.69c-7.34-1.36-12,1.43-15.61,9.18
					c-2.42,5.21-4.22,10.98-5.95,16.56c-0.98,3.14-1.96,6.26-3.04,9.28c-2.73,7.71-5.56,15.71-3.73,23.83
					C1291.29,966.36,1293.45,971.59,1295.56,976.65z"/>
				<path d="M1798.35,1082.32c6.36-4.69,8.55-9.94,6.88-16.53c-1.5-5.95-5.95-11.2-10.25-16.3c-1.11-1.29-2.16-2.58-3.17-3.84
					c-6.23-7.8-14.99-13.34-26.76-16.94c-6.77-2.09-14.16-3.32-21.68-3.68c-20.63-0.98-42.18,4.94-54.21,20.58
					c0.31,1.16,0.46,2.37,0.51,3.6c15.81-5.41,34.43-7.65,53.69-6.72c9.58,0.44,19.34,1.62,29,3.68l1.7,0.36l-0.08,1.98
					c-0.16,1.08-1.03,1.93-2.19,1.8l-5.2-0.36c-7.62-0.52-15.42-1.03-23.23-1.21c-4.46-0.13-8.91-0.18-13.37,0
					c-12.72,0.44-25.95,2.78-41.61,7.36c-0.05,0.02-0.1,0.02-0.15,0.05c-3.71,7.11-13.47,6.75-20.04,6.26l-0.16,1.08
					c-0.88,6.28-1.75,12.77-2.99,19.29c14.71-12.31,32.68-26.52,53.3-24.15l1.73,0.18l0.05,1.91l-0.08,1.75l-1.88,0.15
					c-19.67,0.26-36.26,14.22-50.91,26.55l-3.24,2.76c-0.33,0.26-0.72,0.46-1.11,0.59c-0.75,3.04-1.57,5.79-2.42,8.37
					c9.42-1.39,17.69-6.23,26.4-11.33c8.83-5.15,17.92-10.51,28.43-12l1.8-0.26l0.62,2.01c0.21,1.13-0.51,2.16-1.65,2.4
					c-9.53,1.88-17.97,7.24-26.16,12.39c-9.73,6.13-19.83,12.46-31.96,13.39c-0.62,1.44-1.26,2.78-1.91,4.07
					c14.83,1.98,29.25-4.97,43.24-11.74c1.57-0.75,3.14-1.5,4.66-2.24c1.06-0.46,2.29-0.08,2.83,0.95l0.85,1.57l-1.65,1.24
					c-14.63,8.5-34.48,20.06-53.25,16.02c-1.34,2.06-2.7,3.92-4.17,5.64c7.55,2.14,16.22,4.2,25.49,4.74
					c10.38,0.59,20.04-1.83,31.39-7.93c1.03-0.57,2.34-0.26,3.01,0.72c0.67,0.98,0.54,2.24-0.33,3.01
					c-13.67,12.34-34.79,13.83-64.53,4.51c-0.7,0.64-1.42,1.24-2.19,1.83c-1.78,1.37-3.73,2.58-5.92,3.68
					c5.79,1.85,11.41,4.17,16.89,6.46c4.22,1.72,8.58,3.53,12.9,5.07c14.73,5.23,28.82,5.12,43.03-0.39l1.7-0.64l1.62,3.43l-1.67,1
					c-13.49,6.46-27.09,7.75-41.54,3.99c-7.98-2.09-15.73-5.18-23.25-8.16c-6.28-2.47-12.8-5.07-19.34-7
					c-2.7,0.8-5.48,1.52-8.24,2.24c-0.41,0.1-0.8,0.21-1.18,0.31c5.2,1.75,10.25,4.12,15.17,6.47l3.06,1.44
					c13.78,6.41,25.36,11.25,38.65,9.94l1.73-0.16l0.59,1.93c0.21,1.13-0.49,2.19-1.6,2.5c-11.95,3.14-24.1-0.98-33.35-4.94
					c-2.44-1.05-4.87-2.11-7.24-3.17c-9.66-4.27-18.75-8.32-28.89-10.43c-1.72,0.67-3.24,1.36-4.66,2.09
					c13.06,1.13,24.44,5.72,33.19,9.76c1.57,0.72,3.14,1.47,4.69,2.21c6.05,2.83,12.31,5.79,18.72,7.83
					c7.8,2.44,16.74,3.37,26.6,2.76c16.71-1.03,33.09-8.01,44.94-19.13c1.11-1.03,2.19-2.09,3.3-3.17
					c4.66-4.45,9.66-9.27,15.45-12.64c3.91-2.27,8.16-3.92,12.95-4.3c3.48-0.28,6.98-0.16,10.35-0.03c3.04,0.13,6.15,0.26,9.19,0.05
					c3.55-0.21,6.03-1.29,7.6-3.22c2.91-3.66,2.27-10.28,1.55-14.91C1786.61,1099.39,1787.64,1090.22,1798.35,1082.32z"/>
				<path d="M1759.65,1135.36c-3.71,0.49-7.49,1.98-11.54,4.64c-2.45,1.6-5.02,3.6-7.7,6.03l-2.19,2.01
					c-8.47,7.7-15.79,14.39-26.55,19.39c-12.13,5.64-26.14,8.09-40.56,7.13c-14.14-0.98-26.7-6.92-38.86-12.69l-0.36-0.18
					c-7.31-3.48-13.8-5.92-20.14-7.6c0.1,4.79-0.31,9.6-1.19,14.39l3.06,0.03c8.47,0.13,17.23,0.28,25.88-0.03l1.7-0.05l0.46,1.88
					c0.16,1.11-0.54,2.11-1.6,2.37c-8.73,2.11-17.87,1.98-26.7,1.85c-1.39-0.03-2.78-0.05-4.17-0.05c-0.62,2.29-1.34,4.53-2.16,6.72
					c2.04,0.23,4.05,0.46,6.08,0.72c14.91,1.75,29,3.43,43.31-0.1l1.72-0.44l0.77,1.83c0.33,1.05-0.23,2.19-1.26,2.6
					c-15.37,5.77-31.7,3.86-47.51,2.04c-1.88-0.21-3.76-0.44-5.66-0.65c-0.16,0.33-0.31,0.7-0.49,1.03
					c9.66,0.46,18.93,2.73,29.07,5.41c12.28,3.22,25.65,5.92,40.07,3.78c1.16-0.15,2.21,0.57,2.45,1.7l0.36,1.7l-1.85,0.8
					c-15.32,4.58-30.36,0.95-44.88-2.57c-9.35-2.27-19.03-4.61-28.61-4.66c-0.38,0.64-0.8,1.26-1.18,1.88c1.67,0,3.4,0.18,4.99,0.64
					c9.99,1.11,20.27,4.27,30.16,7.31c6.82,2.11,13.85,4.28,20.75,5.72c23.07,4.87,43.88-0.75,58.69-15.76
					c7.24-7.34,12.8-16.51,18.21-25.36c2.83-4.66,5.74-9.48,8.88-13.96c2.71-3.89,5.41-7.29,8.09-10.25
					C1752.67,1140.8,1756.14,1137.71,1759.65,1135.36z"/>
				<path d="M1659.24,1217.56c-9.01-1.31-17.87-3.94-26.42-6.46l-2.83-0.85c-9.07-2.65-17.95-4.61-27.35-6.7l-2.21-0.41
					c-0.62-0.1-1.26-0.21-1.85-0.26c-0.85-0.1-1.7-0.16-2.52-0.23l-1.19-0.1c-0.46,0.57-0.93,1.16-1.44,1.78
					c10.77,0.93,21.74,4.66,31.24,8.32c12.13,4.69,23.95,11.12,35.1,19.18l1.44,1.03l-1.86,3.19l-1.72-0.83
					c-13-7.49-24.08-12.85-34.89-16.87c-8.21-3.06-16.38-4.69-25.03-6.41c-3.14-0.62-6.34-1.26-9.5-1.98
					c-0.23,0.23-0.46,0.46-0.7,0.7c10.35,3.48,20.55,8.45,30.44,13.26l1.91,0.93c15.37,7.47,27.19,16.09,36.13,26.32l1.16,1.34
					l-2.52,2.63l-1.47-1.18c-10.48-9.48-22.22-17.36-35.92-24.13c-5.43-2.68-11.36-4.92-17.07-7.08c-2.19-0.83-4.4-1.67-6.59-2.55
					c3.53,2.5,6.85,5.41,9.84,8.24c4.56,4.27,8.75,8.94,12.82,13.47c4.25,4.71,8.63,9.58,13.34,13.9c0.88,0.8,0.95,2.14,0.18,3.06
					c-0.75,0.93-2.06,1.11-3.01,0.44c-6.67-4.87-12.36-10.89-17.84-16.71c-1.57-1.65-3.14-3.32-4.71-4.94
					c-6.57-6.77-12.72-11.51-19.52-14.91c10.64,11.56,20.78,27.63,22.87,44.22c15.94,7.36,45.91,11.84,59.49-7.29
					c3.84-5.41,4.76-12.49,5.72-19.98c1-7.67,2.01-15.53,6.44-21.58C1672.79,1218.74,1666.12,1218.56,1659.24,1217.56z"/>
				<path d="M1499.43,984.49c-7.75,0.65-16.58,4.66-25.96,8.91c-10.02,4.57-20.37,9.28-30.18,10.03l-0.05,0.05
					c-1.62,0.85-2.88,1.93-3.78,3.22c-0.59,0.86-0.93,1.89-1.26,3c-0.08,0.18-0.13,0.39-0.18,0.59c0.85,2.55,1.31,5.25,1.75,7.85
					c0.39,2.29,0.75,4.46,1.37,6.52c0.72,2.39,1.55,4.79,2.47,7.21c0.67-1.08,1.96-1.62,3.19-1.31c0.21,0.05,0.39,0.13,0.57,0.18
					c0.23-0.49,0.64-0.9,1.21-1.13c1.78-0.72,3.01-0.1,3.58,0.33c2.06,1.55,1.83,5.05,1.73,6.08c-0.05,0.41-0.18,0.8-0.33,1.13
					c2.73,2.24,5.46,4.48,8.16,6.72l4.3,3.53c1.37,1.13,2.78,2.27,4.17,3.4c0.28-1.65,0.67-3.19,1.18-4.66
					c-1.65-2.14-3.32-4.25-4.99-6.33c-5.31-6.64-10.87-13.78-15.3-21.6c-0.9-0.65-2.06-1.73-2.52-3.63c-0.18-0.67-0.08-1.37,0-1.96
					c0.03-0.21,0.08-0.54,0.05-0.64c-0.54-0.85-0.21-2.29,0.88-3.09c0.36-0.26,0.75-0.42,1.13-0.49l-0.59-1.46l1.57-1.13
					c1-0.55,2.27-0.27,2.88,0.68c0.33,0.49,0.9,0.97,1.5,1.48c0.98,0.84,2.09,1.79,2.68,3.26c1.24,3.01-0.95,5.02-2.88,6.23
					c5.64,7.73,10.61,14.32,15.89,20.73c0.59,0.72,1.16,1.42,1.78,2.14c-0.62-1.21-1.16-2.42-1.7-3.6c-0.67-1.49-1.34-2.99-2.16-4.4
					c-1.57-2.81-3.48-5.25-5.33-7.49c-0.67-0.82-0.67-1.98,0-2.81c0.64-0.8,1.75-1.03,2.68-0.54c2.86,1.47,4.76,4.38,6.28,6.7
					l0.33,0.49c1.57,2.4,3.09,4.74,4.2,7.16c0.77-0.8,1.65-1.57,2.65-2.39c-1.11-2.34-2.21-4.71-3.4-6.98
					c-2.03-3.86-4.48-7.55-6.82-11.1c-1.47-2.19-2.91-4.38-4.27-6.62l-0.8-1.29l2.21-2.23l1.39,0.84
					c4.99,3.43,8.27,9.27,11.15,14.45l1.44,2.55c1.29,2.32,2.63,4.66,3.92,7.03c1.8-1.03,3.71-1.93,5.72-2.71
					c-0.21-1.21-0.41-2.45-0.65-3.66c-1.42-7.52-3.65-14.19-6.85-20.38c-1.13-0.09-2.14-0.5-3.06-1.22
					c-0.46-0.36-0.77-0.82-1.06-1.24c-0.08-0.12-0.18-0.26-0.28-0.37c-1.21-0.36-1.98-1.51-1.91-2.83c0.1-1.56,1.31-2.74,2.81-2.78
					c0.02,0,0.08,0,0.08,0c0.05-0.04,0.08-0.07,0.08-0.08c0.75-1.2,2.09-1.86,3.5-1.79c1.55,0.1,3.61,1.43,4.1,3.17
					c0.28,1.04,0.28,2.14,0.26,3.1v0.9c0,0.32-0.03,0.63-0.13,0.94c3.91,6.15,5.98,13.24,7.47,19.39c0.39,1.67,0.77,3.4,1.16,5.1
					c0.93-0.23,1.88-0.44,2.81-0.62c0.1-1.67,0.21-3.32,0.31-4.97c0.18-2.63,0.36-5.2,0.46-7.75c0.26-5.79,0.77-12.53,2.47-19.14
					c-1.6-0.52-2.6-2.09-2.65-4.2c-0.05-1.52,0.85-2.93,2.4-3.81c0.26-0.16,0.54-0.3,0.85-0.41l0.15,0.2
					c0.08-0.12,0.13-0.22,0.21-0.32v-0.04c0.02-0.03,0.08-0.05,0.1-0.08c0.02-0.03,0.02-0.04,0.02-0.04
					C1502.09,984.37,1500.67,984.4,1499.43,984.49z"/>
				<path d="M1507.34,993.33c-1.16,6.84-1.85,13.83-2.11,21.34c-0.08,1.98-0.08,3.99-0.08,6.05c0,0.51,0,1,0,1.52
					c1.18-7.88,4.12-15.84,6.77-22.25c-1.21-2.07-0.59-3.85-0.15-5.18c0.1-0.32,0.23-0.67,0.33-1.03c0.26-1.07,1.08-1.83,2.09-1.98
					c0.21-0.46,0.56-0.85,1.03-1.11c0.93-0.5,2.06-0.36,2.81,0.38c0.26,0.23,0.49,0.45,0.72,0.67c0.85,0.76,1.83,1.62,2.47,2.9
					c0.49,0.93,0.69,2.02,0.64,3.24c0,0.48-0.08,0.89-0.21,1.26c2.34-4.24,4.97-7.96,7.88-11.12c0.1-0.36,0.26-0.7,0.46-0.99
					c0.36-0.45,0.85-0.79,1.39-0.94c0-0.01,0.03-0.03,0.03-0.03c-0.08-0.09-0.16-0.17-0.21-0.25c-5.64,0.08-11.54-0.38-17-0.8
					c-2.21-0.18-4.38-0.33-6.41-0.45c0.03,0.02,0.05,0.06,0.08,0.1c0.05,0.05,0.1,0.1,0.18,0.15c1.73,1.7,1.75,4.42,0,7.66
					C1507.88,992.83,1507.65,993.12,1507.34,993.33z"/>
				<path d="M1516.3,1002.35c-0.9,3.28-1.72,6.63-2.5,9.9c-0.93,3.81-1.88,7.72-2.99,11.56c0.16,0,0.28,0,0.44,0
					c0.33,0,0.67,0.03,1,0.03c1.29-4.94,3.04-9.81,4.61-14.06c1.24-3.33,2.6-6.46,4.12-9.35c-0.54,0.62-1.26,0.99-2.01,1.29
					C1518.03,1002.1,1517.15,1002.32,1516.3,1002.35z"/>
				<path d="M1469.87,1059.32c-0.03-0.41-0.08-0.82-0.1-1.21l-0.13-0.13c-1.85-1.65-3.68-3.27-5.53-4.84l-3.43-2.94
					c-4.27-3.63-8.7-7.41-12.95-11.28c-0.54-0.18-1.03-0.46-1.5-0.85c0.51,1.11,1.03,2.19,1.57,3.27
					c4.97,9.96,11.84,18.54,20.42,25.52c1.18,0.95,2.5,1.9,3.99,2.91c-0.54-1.47-1-2.96-1.37-4.51c-0.64-0.46-1.05-1.24-1.08-2.11
					c-0.03-1.23,0-2.44,0.13-3.63L1469.87,1059.32z"/>
				<path d="M1544.78,1030.81c1.37,1.6,2.6,3.37,3.63,5.25c0.08,0.1,0.16,0.21,0.21,0.31c0.05-0.05,0.13-0.13,0.18-0.18
					c0.49-0.57,1-1.16,1.55-1.73c-1.47-1.44-3.12-2.52-5-3.32C1545.14,1031.07,1544.96,1030.97,1544.78,1030.81z"/>
				<path d="M1535.77,992.6c-1.31,0.09-2.29-0.28-3.04-0.68c-4.61,6.37-8.27,13.43-11.12,21.49c-1.26,3.58-2.11,7.29-2.88,10.95
					c1.47,0.21,2.94,0.46,4.35,0.77c0.21-0.21,0.46-0.36,0.75-0.49c2.03-0.85,4.15-1.31,6.26-1.34l1.72-3.6
					c3.22-6.77,7.73-15.37,14.32-22.61c-0.03-0.08-0.08-0.17-0.1-0.26c-0.16-0.37-0.28-0.72-0.44-0.93
					c-0.72-1.08-0.59-2.43,0.36-3.3c0.67-0.63,1.6-0.86,2.44-0.67c-0.18-0.44-0.31-0.92-0.36-1.44c-0.1-1,0.46-1.92,1.42-2.27
					c0.98-0.37,2.09-0.04,2.68,0.83c0.26,0.36,0.57,0.7,0.88,1.04c0.52,0.55,1.08,1.17,1.52,1.93c1.13,1.94,0.75,4.71-0.21,6.32
					c-0.8,1.41-2.68,2.07-4.3,1.93c-5.13,6.82-9.45,14.03-13.16,21.99c-0.31,0.69-0.62,1.36-0.93,2.09
					c1.52,0.56,3.01,1.36,4.45,2.39c0.72-1.13,1.44-2.24,2.14-3.32c6.39-9.81,13.16-16.71,20.68-21.09c-0.05-0.45,0-0.93,0.15-1.39
					c0.31-0.81,0.93-1.41,1.7-1.69l-0.08-0.06l0.83-1.71c0.59-0.95,1.8-1.29,2.78-0.84c0.28,0.14,0.69,0.19,1.18,0.26
					c0.72,0.08,1.6,0.18,2.45,0.62c2.76,1.39,2.03,4.78,1.77,5.88c-0.39,1.84-1.39,2.72-2.78,3.45c-1.29,0.68-2.65,0.73-3.86,0.19
					c-0.62-0.28-1.08-0.7-1.47-1.12c-7.03,5.09-13.16,11.88-19.13,21.23l0.08,0.03c2.47,0.85,4.76,2.19,6.75,3.97
					c9.32-9.09,19.62-15.12,29.95-17.46c0.44-0.31,0.93-0.46,1.55-0.44c0.15,0,0.39,0.02,0.67,0.05c0.33,0.03,0.62,0.05,0.88,0.08
					c-0.49-0.67-0.98-1.26-1.47-1.77l-1.16-1.21l1.11-1.6c0.67-0.81,1.86-0.97,2.73-0.39l0.31,0.21c1.9,1.24,5.43,3.53,4.64,6.93
					c-0.28,1.36-1.73,4.38-8.34,3.04c-0.11,0-0.18-0.03-0.26-0.05c-9.94,4.35-18.54,10.22-26.19,17.87c0.9,1.44,1.73,3.06,2.42,4.84
					c8.27-4.87,17.72-9.01,28.12-12.36l1.73-0.57l1.44,3.53l-1.8,0.93c-10.87,4.45-19.96,9.09-27.68,14.14
					c0.23,0.93,0.44,1.88,0.62,2.86c0.67,0.05,1.31,0.33,1.8,0.85c0-0.05,0-0.13,0.03-0.18c0.13-1.05,1.03-1.88,2.11-1.93l1.57-0.08
					l0.62,1.75c0.13,0.54,0.33,1.03,0.57,1.52c0.39,0.88,0.8,1.85,0.9,3.01c0.28,2.91-1.16,4.94-2.27,6.21
					c-0.85,0.98-2.27,1.24-3.5,0.62c-0.13-0.05-0.23-0.1-0.36-0.18c-0.72,0.54-1.47,1.11-2.21,1.72c-0.31,4.15-1.08,7.67-2.29,10.71
					c-0.46,1.16-1.72,1.7-2.88,1.26c-0.64-0.23-1.08-0.75-1.29-1.36c-0.39,0.85-0.8,1.65-1.26,2.42c-0.57,0.95-1.62,1.44-2.68,1.34
					c-0.31,0.75-0.65,1.47-0.95,2.16c6.05-2.37,11.72-5.9,17.12-10.64c3.92-3.42,7.6-7.34,11.18-11.1
					c4.89-5.2,9.96-10.56,15.84-14.94c4.76-3.58,10.14-6.57,15.96-8.88c-1.29-6.36-4.64-11.59-8.29-16.82
					c-0.21-0.21-0.39-0.44-0.49-0.69l-2.06-2.94c-0.8-0.44-1.31-1.18-1.44-2.09c-2.21-3.26-4.64-7.15-6.31-11.57
					c-0.75-2.01-1.31-4.12-1.67-6.3c-2.11,1.87-4.46,2.88-7.01,3.02c-5.02,0.31-10.38-2.74-16.17-9.02
					c-1.08-0.32-1.91-1.22-2.11-2.43c-2.91-3.5-5.38-7.2-7.16-10.07c-3.53,6.08-10.02,8.88-17.64,10c0.13,0.41,0.23,0.89,0.28,1.42
					c0.1,1.16,0.23,2.94-0.88,4.07C1538.81,991.69,1537.21,992.46,1535.77,992.6z"/>
				<path d="M1361.67,1045.8c0.7,1.88,1.49,3.71,2.34,5.51c-4.28-18.28-5.23-35.61-2.83-51.45c0.18-1.14,1.24-1.94,2.37-1.83
					c0.1,0.01,0.21,0.04,0.31,0.05c-2.93-3.59-5.48-7.29-7.6-11.05c-0.1,1.75-0.21,3.52-0.33,5.27
					c-0.72,10.97-1.39,21.34,0.18,32.23C1357.08,1031.28,1358.91,1038.23,1361.67,1045.8z"/>
				<path d="M1397.15,1024.48c-8.32-3.42-16.51-9.22-25.49-17.91c-2.16-2.11-4.2-4.25-6.08-6.44c0,0.06,0,0.12,0,0.18
					c-0.64,13.25,0.21,26.33,2.52,39.75c1.75-7.65,4.48-15.14,6.98-21.99l0.13-0.39c0.36-0.95,1.23-1.55,2.19-1.55
					c0.23,0,0.46,0.03,0.69,0.1c1.19,0.36,1.85,1.55,1.57,2.76c-0.75,3.12-1.62,6.21-2.47,9.3c-1.26,4.51-2.55,9.19-3.5,13.83
					c-0.54,2.73-0.85,5.41-1,7.93c0.62-1.26,1.31-2.52,2.06-3.76C1379.67,1038.33,1387,1031.17,1397.15,1024.48z"/>
				<path d="M1636.79,909.31c-8.58-17.87-21.09-32.04-36.21-40.97c-9.55-5.64-19.93-7.7-29.28-5.77
					c-10.46,2.18-20.52,10.66-27.66,23.3c-2.63,4.65-4.12,9.75-4.53,15.4c1.78-7.64,4.74-14.2,8.68-19.03l1.08-1.34l1.78,0.94
					c0.93,0.66,1.21,1.92,0.64,2.88c-6.52,10.78-9.53,27.66-7.65,43.06c1.21,3.48,2.6,6.95,4.04,10.38
					c0.72-11.3,3.89-22.72,6.93-32.87c0.36-1.21,1.57-1.89,2.78-1.62c1.24,0.3,2.01,1.51,1.78,2.76c-0.46,2.64-0.95,5.28-1.47,7.92
					c-1.13,5.85-2.29,11.88-2.99,17.88c-0.93,8.07-0.08,15.98,0.77,23.64c0.26,0.59,0.51,1.2,0.75,1.79
					c0.59-15.1,5.56-29.54,14.57-42.18c0.7-0.94,1.98-1.2,2.94-0.57l1.49,0.97l-0.77,1.91c-10.09,18.04-13.85,36.11-11.18,53.7
					c0.05,0.31,0.05,0.62,0.02,0.91c0.31,0.57,0.65,1.12,0.98,1.67c-0.21-16.82,5.05-33.36,14.81-46.24
					c0.72-0.94,2.03-1.13,2.99-0.5c0.95,0.64,1.23,1.88,0.64,2.87c-10.04,17.44-13.88,35.99-11.07,53.65v0.01
					c1.1,1.17,2.19,2.18,3.27,3.02c-1.06-7.52,1.21-16.03,2.93-22.54c2.73-10.25,6.9-20.77,12.44-31.42
					c0.59-1.13,1.93-1.58,3.11-1.06c1.19,0.54,1.75,1.83,1.29,3l-1.34,3.55c-2.93,7.75-5.98,15.76-8.34,23.83
					c-2.58,8.84-3.43,17.25-2.78,27.98c2.6,0.17,5.15-0.93,7.6-3.36c0.08-0.08,0.16-0.16,0.26-0.22c0.21-7.47,2.55-15.56,7.26-25.31
					c5.77-11.87,14.39-23.11,27.22-35.36c3.55-3.41,8.81-8.06,14.91-10.6c-0.75-1.81-1.52-3.62-2.34-5.36
					C1636.99,909.82,1636.86,909.58,1636.79,909.31z"/>
				<path d="M1414.02,894.58c-6.33,0.41-14.11,0.98-19.49,5.16c-3.94,3.05-4.71,8.48-4.97,12.88c-0.21,3.44-0.16,6.94-0.13,10.33
					c0.1,7.48,0.18,15.22-2.29,22.9c-1.55,4.84-4.27,9.55-8.6,14.82l-1.23,1.5c-3.43,4.08-6.39,7.61-6.31,12.89
					c0.1,7.48,4.76,16.24,13.55,25.31c2.73,2.79,5.64,5.51,8.45,8.12c3.91,3.63,7.96,7.36,11.59,11.48
					c8.24-4.71,16.77-8.6,25.03-12.4l2.81-1.29c0.54-1.22,1.26-2.43,2.06-3.4v-0.01c-0.08-0.03-0.18-0.05-0.28-0.08
					c-0.23,0.3-0.54,0.54-0.93,0.72c-8.26,4.02-20.34-1.6-27.58-4.96c-8.65-4.03-20.11-10.93-26.06-21.18
					c-0.62-1.04-0.31-2.32,0.7-2.97c1-0.66,2.34-0.41,3.06,0.54c4.76,6.36,11.67,11.78,21.81,17.05c4.51,2.33,9.4,4.18,14.55,5.5
					c1.57,0.4,3.09,0.57,4.61,0.64c-0.39-0.31-0.8-0.63-1.18-0.97c-0.28-0.14-0.57-0.35-0.8-0.58c-0.26-0.26-0.51-0.54-0.75-0.82
					l-0.36-0.4c-15.48-2.06-27.02-19.68-30.31-31.75c-0.33-1.13,0.33-2.34,1.47-2.74c1.13-0.4,2.32,0.13,2.78,1.21
					c4.99,11.54,11.38,19.34,19.83,24.1c-1.57-3.19-2.78-6.66-3.55-10.35c-6.28-7.53-13.24-17.74-12.31-30.32
					c0.1-1.2,1.05-2.02,2.32-2.07c1.18,0.03,2.14,0.99,2.16,2.19c0.08,6.52,2.22,12.85,6.7,19.6c-0.08-4.89,0.44-10.07,1.52-15.45
					c-3.55-7.21-5.56-14.96-6-23.05l-0.08-1.74l1.98-0.49c1.13-0.17,2.16,0.62,2.37,1.74c0.88,5.03,2.22,9.84,4.02,14.55
					c1.85-5.95,4.3-11.93,7.24-17.55c5.98-11.5,14.19-22.71,25.08-34.27c7.96-8.45,18.64-18.89,30.88-24.71
					c1.03-0.5,2.27-0.13,2.88,0.84c0.59,0.94,0.41,2.15-0.46,2.86c-18.23,15.02-37.13,31.57-50.37,54.12
					c-5.48,9.35-9.24,18.76-11.18,28c0.16,0.71,0,1.42-0.38,2.02c-0.39,2.13-0.64,3.93-0.8,5.64c-0.57,5.88-0.05,11.95,1.55,18.05
					c1.31,5.07,3.89,9.3,6.59,13.76l0.26,0.41c1.67,1.74,3.5,3.11,5.48,4.15c-7.55-13.07-9.07-30.25-9.37-37.62
					c-0.05-1.14,0.77-2.11,1.93-2.25c1.19-0.12,2.16,0.59,2.4,1.71c1.21,6.01,2.75,13.09,4.87,20.18
					c1.75,5.84,4.35,11.09,7.08,16.62l1.78,3.64c0,0.01,0,0.01,0,0.01c5.15,0.3,11.18-0.84,18.75-3.59
					c-7.96-12.43-11.02-26.29-8.65-39.3c0.23-1.12,1.13-1.89,2.34-1.76c1.16,0.12,2.01,1.04,2.01,2.18
					c-0.05,14.01,3.19,25.67,10.22,36.55c1.8-0.75,3.6-1.55,5.41-2.34c-2.63-2.97-4.22-7.12-5.36-10.05
					c-2.91-7.43-3.92-13.6-3.17-19.42c0.16-1.23,1.06-2.09,2.4-2.06c1.21,0.07,2.14,1,2.19,2.21c0.23,5.46,1.55,10.85,4.17,16.94
					c0.75,1.78,1.78,3.44,2.83,5.2c0.9,1.48,1.83,3,2.6,4.62c2.4-1.07,4.94-2.19,7.42-3.2c-5.07-8.96-7.26-16.49-6.85-23.59
					c0.05-1.27,1.06-2.27,2.32-2.3c1.21,0.04,2.34,0.89,2.5,2.18c0.93,7.66,4.22,14.17,7.73,21.07l0.21,0.42
					c2.91-0.98,5.43-1.65,7.75-2.01c0.23-0.04,0.46-0.08,0.72-0.12c-9.01-15.64-12.67-30.22-10.94-43.36l0.23-1.78l2.03-0.05
					c1.11,0.1,1.93,1.03,1.88,2.14c-0.41,15.14,6.03,27.86,12.82,41.33l0.72,1.4c3.19,0.04,6.59,0.3,10.17,0.61
					c-10.74-15.15-14.81-34.17-10.69-50.6c0.28-1.17,1.39-1.9,2.65-1.71c1.18,0.21,2.04,1.26,1.93,2.44
					c-1.55,18.8,2.63,34.04,13.49,49.43c0.23,0.35,0.41,0.75,0.46,1.13c2.98,0.26,6.18,0.46,9.32,0.5
					c-8.5-12.76-17.44-31.04-16.22-50.51c0.08-1.14,0.98-2.03,2.14-2.06c1-0.1,2.14,0.84,2.24,2.01
					c1.67,17.74,7.98,34.18,19.23,50.24c8.19-0.9,13.52-3.79,16.61-8.99c-0.23-0.46-0.46-0.89-0.67-1.29
					c-4.76-9.21-8.58-19.16-12.28-28.79c-0.72-1.9-1.47-3.8-2.19-5.68c-0.21-0.07-0.39-0.16-0.57-0.26
					c-0.69-0.42-1.13-1.13-1.29-1.97c-0.21-1.34-0.41-2.74-0.57-4.17c-5.61-16.02-6.05-29.03-1.44-40.96
					c4.43-11.38,12.85-20.87,23.3-26.29c-2.42-6.33-5.31-11.9-8.6-16.56c-0.9-0.3-1.6-1.02-1.85-2.02l-0.23-0.76
					c-6.2-7.72-13.96-12.77-23.02-15.01c-14.63-3.6-28.69,2.73-42.85,19.38c-9.68,11.34-20.63,24.21-33.19,34.85
					c-6.98,5.91-17.38,13.75-27.96,14.65c-0.18,0.23-0.44,0.42-0.7,0.58c-0.85,0.53-1.88,0.62-2.76,0.23
					c-0.83-0.33-1.62-0.72-2.42-1.11C1415.31,894.91,1414.66,894.76,1414.02,894.58z"/>
			</g>
		</g>
	</g>
</g>
</svg>
